<svg width="354" height="353" viewBox="0 0 354 353" fill="none" xmlns="http://www.w3.org/2000/svg">
<path fill-rule="evenodd" clip-rule="evenodd" d="M166.037 30.5325C188.494 23.5759 173.062 4.84969 156.838 4.01049C127.718 1.03054 96.0825 2.01468 69.0924 13.252C57.217 19.2699 39.4269 23.3198 34.1725 35.5834C41.1524 33.0937 47.4988 28.0468 54.9056 25.7622C72.1679 18.3635 89.63 11.9471 108.847 10.8698C127.03 9.2343 149.725 6.37618 166.128 14.8658C180.364 26.5218 150.724 25.1531 143.608 24.7608C137.52 24.5131 135.684 24.4786 135.031 30.5409C136.84 32.0021 139.001 32.5037 141.392 32.3701C150.687 32.0369 159.36 35.6873 167.578 39.2085C179.461 45.4454 206.929 67.7754 173.838 57.3957C169.859 56.7612 154.083 50.0381 152.202 53.4573C152.67 55.2601 149.736 57.5575 152.097 58.6873C161.36 62.4584 168.823 68.1604 174.885 75.5132C184.279 83.9426 188.057 111.789 167.504 101.968C156.252 93.0208 146.988 82.1728 136.251 72.6411C134.63 71.6181 133.794 73.5768 133.705 74.798C132.559 78.0385 127.069 76.6823 126.99 81.1718C123.449 94.6581 121.324 108.349 119.321 122.079C112.83 150.082 120.967 150.396 94.6068 135.553C92.1228 133.846 87.1103 135.191 88.0526 138.63C88.2128 139.635 88.1018 140.474 87.5448 141.289C83.4862 146.807 78.5407 151.744 74.1577 157.05C69.7075 161.413 51.1265 153.15 50.9831 146.981C49.8515 142.741 50.306 138.584 50.895 134.291C50.9102 132.256 47.7771 132.865 46.2778 132.365C43.5207 132.105 43.8727 135.717 43.4782 137.392C40.9534 171.427 95.091 154.078 49.6408 172.655C36.0002 178.176 36.0575 171.671 29.5653 162.642C24.7443 154.689 9.02211 140.385 3.85708 155.58C5.34276 155.771 5.78925 154.747 6.42797 154.197C11.8389 149.395 17.211 156.708 20.4462 160.274C23.601 164.584 26.2936 169.176 29.245 173.615C30.8388 175.595 28.8337 176.14 28.364 177.809C38.2435 180.96 39.523 199.445 41.5741 207.955C46.766 239.911 57.7932 233.49 19.9885 239.307C17.3639 240.266 11.6967 238.696 11.2686 241.896C11.7196 243.619 10.7873 246.869 13.8384 246.404C54.4542 243.553 45.2582 230.728 55.7661 254.235C65.3321 271.558 84.8226 284.735 106.22 286.175C130.928 289.199 155.718 289.057 180.535 289.604C211.655 289.573 244.43 278.095 274.557 288.283C276.829 294.626 221.034 296.106 229.341 304.267C241.463 307.496 254.959 304.641 266.539 311.026C272.655 313.771 272.019 314.785 265.202 315.079C256.35 315.647 247.49 315.918 238.816 317.789C225.461 324.04 245.566 325.332 250.84 325.747C254.537 325.911 268.715 330.143 261.643 333.556C256.055 336.13 249.718 333.911 244.222 336.429C224.895 338.685 205.525 342.202 185.916 343.179C159.887 344.497 134.018 343.696 107.967 342.883C83.1158 341.681 42.6481 343.614 23.8737 327.27C19.1155 321.793 15.2075 315.867 13.9541 308.848C13.1219 305.765 12.6862 302.346 9.56071 300.45C8.52234 299.633 6.90812 300.851 6.05035 299.535C6.03513 299.511 5.51455 299.673 5.33915 299.843C-3.82321 307.045 6.99181 317.742 11.1637 324.938C32.9403 354.646 106.177 349.825 141.867 351.065C164.224 350.316 186.714 350.835 208.97 348.739C224.629 348.805 239.58 343.872 255.011 342.277C263.346 342.216 276.315 335.905 268.354 327.474C266.887 324.649 260.319 324.497 260.185 321.764C294.261 319.832 277.075 308.12 256.7 301.301C263.774 298.073 270.691 298.18 277.582 294.858C293.411 283.842 263.691 278.41 254.961 278.268C225.097 276.779 195.707 283.902 165.853 282.745C125.078 283.023 73.6676 287.526 57.6354 243.828C50.1053 223.891 50.6047 202.061 41.7086 182.517C41.2237 181.575 41.0463 180.142 42.6173 180.132C51.4589 180.168 59.3265 176.925 67.1906 173.829C79.3319 167.912 86.9974 156.062 94.7618 146.014C97.2326 140.005 113.093 156.711 116.76 152.227C129.22 142.076 131.004 102.328 134.846 86.0999C134.863 85.2867 135.28 83.8017 136.403 84.362C150.156 92.3603 159.617 112.857 178.514 109.17C185.881 107.792 192.632 94.7704 187.044 89.7638C191.033 82.3237 178.959 71.1403 174.582 65.085C219.029 70.5866 185.195 39.116 166.037 30.5325Z" fill="white"/>
<path fill-rule="evenodd" clip-rule="evenodd" d="M271.239 170.905C278.516 168.689 282.237 161.964 285.397 155.956C288.513 163.116 292.232 171.462 302.106 171.139C313.773 171.394 317.189 158.197 320.286 149.922C323.455 154.305 322.392 160.535 327.034 163.617C336.642 167.299 342.92 157.168 347.005 150.771C351.725 138.009 353.259 124.069 351.95 110.627C353.102 76.6697 339.437 54.5889 305.033 40.8824C274.407 28.2225 241.462 20.1927 207.692 24.4753C200.48 25.4282 191.439 24.8063 186.717 30.8429C229.335 28.1557 258.893 27.8824 298.974 44.0719C339.436 60.6093 344.838 80.8654 345.639 118.749C347.118 126.584 343.74 133.973 342.985 141.679C342.334 148.765 338.428 155.891 332.053 159.978C326.249 161.767 325.086 133.63 323.714 129.01C322.948 125.447 324.299 121.213 322.033 118.071C319.898 115.922 316.26 115.509 315.345 118.89C313.493 128.008 313.512 137.464 312.253 146.689C311.632 153.133 309.323 159.769 303.974 164.255C291.224 170.926 289.92 139.365 289.817 132.522C290.965 117.391 280.403 118.543 280.825 132.797C279.686 142.319 281.428 152.853 275.034 161.08C261.174 176.353 264.187 155.602 264.125 147.009C264.128 139.944 264.018 132.878 264.058 125.812C264.37 117.008 267.224 105.835 258.171 99.7828C242.441 89.1521 222.89 83.4244 203.338 82.8913C193.212 85.7912 207.484 90.1021 211.689 89.413C220.532 89.1913 229.401 91.8953 236.838 96.1647C238.711 98.0068 241.494 96.5342 243.669 98.0934C248.652 101.567 257.115 103.776 257.085 110.555C256.255 124.781 256.118 139.039 256.23 153.303C255.699 161.785 258.633 176.221 271.316 170.813C270.838 171.144 270.428 171.225 269.914 170.895C270.372 170.5 270.761 170.63 271.239 170.905Z" fill="white"/>
<path fill-rule="evenodd" clip-rule="evenodd" d="M75.0064 103.294C91.1755 106.485 105.514 71.0109 84.2737 95.9708C79.747 100.546 67.6245 99.9749 67.4963 92.6298C67.5388 85.3408 74.3264 84.1622 73.9596 79.3186C67.4679 71.6531 50.5496 102.943 75.0064 103.294Z" fill="white"/>
</svg>
