<svg width="314" height="286" viewBox="0 0 314 286" fill="none" xmlns="http://www.w3.org/2000/svg">
<g clip-path="url(#clip0_215_28)">
<path fill-rule="evenodd" clip-rule="evenodd" d="M168.845 91.1369C159.919 90.6244 171.251 82.4993 172.313 88.7814C172.387 90.3349 170.282 91.2049 168.845 91.1369ZM194.428 170.872C197.128 162.585 199.04 149.905 208.148 145.898C210.138 146.727 216.831 146.212 215.588 149.109C206.105 157.433 200.699 171.724 208.46 182.471C209.107 183.428 210.507 184.646 209.395 185.633C200.239 188.602 195.119 177.702 194.428 170.872ZM227.762 183.955C209.658 184.671 210.771 170.669 218.703 160.037C221.069 154.911 227.62 155.777 232.397 154.092C241.17 151.654 246.681 161.646 246.283 168.447C244.237 176.028 237.16 184.489 227.762 183.955ZM152.233 90.0963C152.293 90.0963 152.353 90.0959 152.412 90.0959C147.759 33.4237 188.34 48.3222 189.74 92.9028C189.494 105.079 191.975 101.795 179.126 106.308C177.332 106.886 175.892 106.744 176.276 104.772C176.889 93.1395 184.762 81.9501 176.759 71.082C175.794 68.9061 171.122 68.7241 170.902 71.4988C171.08 74.7603 177.516 83.3988 170.198 82.3081C164.591 81.5056 155.902 88.2068 160.93 92.6325C164.112 95.4991 172.377 92.587 172.521 97.7503C172.176 101.084 172.506 107.078 168.2 108.079C147.727 108.059 152.727 106.199 152.233 90.0963ZM141.663 102.025C139.21 125.341 181.018 116.676 194.322 109.788C206.611 95.9353 188.85 92.0984 221.031 103.039C224.471 105.01 245.742 108.382 243.372 111.714C221.535 118.6 198.219 123.619 177.907 133.78C175.759 135.205 173.59 136.811 170.816 135.464C162.027 131.861 152.98 128.892 143.469 127.383C139.714 126.351 97.9816 119.638 106.938 115.526C118.481 110.861 128.653 103.82 139.645 98.1815C142.004 97.2553 141.484 101.715 141.663 102.025ZM249.225 155.24C236.225 146.729 217.798 137.686 201.919 140.344C191.458 147.114 187.413 160.266 187.303 171.551C190.788 193.956 209.385 190.394 227.626 190.712C237.744 193.715 246.014 181.353 247.304 184.7C247.529 188.146 248.446 192.258 243.845 193.442C232.929 199.264 221.972 205.02 211.118 210.94C201.791 216.41 192.346 221.692 182.524 226.381C179.983 221.328 182.506 214.681 181.021 209.116C178.306 191.572 179.241 173.823 178.473 156.164C179.628 151.586 174.91 145.164 178.69 141.802C200.626 130.542 225.883 125.45 249.581 117.985C251.388 117.485 252.024 119.253 251.799 120.638C249.146 132.046 253.009 144.187 249.225 155.24ZM94.178 159.055C94.2453 159.055 94.3127 159.056 94.3801 159.057C95.0619 148.141 94.449 137.222 94.2139 126.301C93.8021 121.723 99.7888 124.349 102.508 124.801C115.291 129.065 128.679 131.148 141.893 133.928C150.145 135.652 158.364 137.511 166.618 139.228C171.491 140.125 170.239 145.551 170.699 148.947C163.963 249.745 210.028 227.589 111.145 211.335C105.833 209.068 95.3813 209.886 93.4423 204.238C93.7857 189.173 94.5019 174.132 94.178 159.055ZM83.4514 164.069C84.2374 175.188 83.7987 189.833 84.9472 201.467C85.5456 203.943 81.1445 202.655 81.9291 204.808C83.8112 207.375 84.0503 214.041 87.9557 213.87C112.787 218.886 138.592 225.662 163.908 230.832C168.533 231.23 173.276 235.514 177.771 233.556C180.453 232.849 183.834 233.907 186.375 232.097C200.895 225.14 215.414 218.148 229.658 210.723C236.35 205.734 253.442 200.77 254.965 193.135C254.829 174.099 270.101 114.637 249.501 105.495C234.323 98.5142 218.019 94.032 202.136 88.6646C196.953 86.5522 198.949 79.0058 196.066 74.8449C191.883 63.6362 185.12 52.3627 173.236 46.8574C160.674 39.7986 147.914 51.5813 145.049 62.5777C143.227 69.1635 142.442 75.8859 142.035 82.6538C141.887 84.626 142.527 87.2485 140.035 88.1669C87.826 115.989 86.1724 105.468 83.4514 164.069Z" fill="white"/>
<path fill-rule="evenodd" clip-rule="evenodd" d="M87.8979 86.2701C77.244 89.506 51.6834 83.8997 48.6851 96.2655C48.4662 98.0363 50.4272 99.5153 51.9435 98.4741C63.3521 93.1756 77.1505 95.4915 89.0306 91.0854C92.9134 89.9235 92.1876 85.5826 87.8979 86.2701Z" fill="white"/>
<path fill-rule="evenodd" clip-rule="evenodd" d="M61.647 145.601C61.8176 152.019 68.1793 175.132 76.3631 164.661C77.0385 158.18 72.2309 152.086 70.6902 145.818C67.7889 133.379 63.5363 133.986 61.647 145.601Z" fill="white"/>
<path fill-rule="evenodd" clip-rule="evenodd" d="M29.5285 145.344C24.8492 145.98 -7.79013 150.221 3.98895 157.556C9.81243 158.457 58.2817 146.985 29.5285 145.344Z" fill="white"/>
<path fill-rule="evenodd" clip-rule="evenodd" d="M293.779 150.754C289.099 151.39 256.46 155.631 268.239 162.966C274.062 163.867 322.532 152.395 293.779 150.754Z" fill="white"/>
<path fill-rule="evenodd" clip-rule="evenodd" d="M224.088 74.521C230.707 72.5473 254.565 70.9179 256.319 65.1212C252.325 58.9828 228.615 66.5077 221.814 68.3611C218.261 70.7606 218.788 75.5152 224.088 74.521Z" fill="white"/>
<path fill-rule="evenodd" clip-rule="evenodd" d="M25.236 212.947C25.2091 215.757 29.1039 218.946 31.5493 216.738C38.8306 209.119 53.4789 208.626 58.0231 198.42C58.2883 196.633 55.6996 196.052 54.3563 197.028C45.9078 203.172 28.6793 202.732 25.236 212.947Z" fill="white"/>
<path fill-rule="evenodd" clip-rule="evenodd" d="M89.7663 60.417C92.377 65.7439 109.863 87.7573 116.174 84.4094C119.371 83.0415 117.402 79.6152 115.808 77.8042C110.739 73.9531 95.9738 55.2035 89.7663 60.417Z" fill="white"/>
<path fill-rule="evenodd" clip-rule="evenodd" d="M219.426 22C223.939 20.3668 261.082 20.8142 253.978 13.8029C248.673 11.7028 191.068 17.2275 219.426 22Z" fill="white"/>
<path fill-rule="evenodd" clip-rule="evenodd" d="M247.171 272.623C253.014 270.833 270.802 266.547 269.816 259.455C263.639 255.719 251.202 262.797 244.476 264.735C238.814 266.796 240.369 274.059 247.171 272.623Z" fill="white"/>
<path fill-rule="evenodd" clip-rule="evenodd" d="M184.372 1.08197C173.676 2.89504 198.202 22.629 202.474 16.494C204.018 9.62678 191.483 1.17595 184.372 1.08197Z" fill="white"/>
<path fill-rule="evenodd" clip-rule="evenodd" d="M225.677 229.535C229.012 233.435 239.761 249.777 245.614 245.149C250.152 241.285 228.018 218.356 225.677 229.535Z" fill="white"/>
<path fill-rule="evenodd" clip-rule="evenodd" d="M217.385 41.1375C219.699 48.1667 220.747 58.5479 227.634 62.679C238.6 64.6285 220.164 27.8289 217.385 41.1375Z" fill="white"/>
<path fill-rule="evenodd" clip-rule="evenodd" d="M22.1668 103.517C17.8685 104.963 21.4973 109.069 24.361 109.997C32.4899 112.761 40.3114 120.153 48.9777 119.719C50.2867 116.287 26.2967 103.115 22.1668 103.517Z" fill="white"/>
<path fill-rule="evenodd" clip-rule="evenodd" d="M286.417 108.927C282.119 110.373 285.747 114.479 288.611 115.407C296.74 118.171 304.561 125.563 313.228 125.129C314.537 121.697 290.547 108.525 286.417 108.927Z" fill="white"/>
<path fill-rule="evenodd" clip-rule="evenodd" d="M97.5518 243.082C102.909 242.502 106.982 242.426 111.05 239.782C115.776 240.866 120.94 235.076 119.918 230.968C119.41 230.108 118.57 230.527 117.995 230.857C113.481 233.46 108.3 234.154 103.306 235.378C99.9299 235.574 91.7643 241.786 97.5518 243.082Z" fill="white"/>
<path fill-rule="evenodd" clip-rule="evenodd" d="M194.712 286.112C203.653 284.526 206.29 257.869 194.728 269.048C195.795 273.554 186.439 286.998 194.712 286.112Z" fill="white"/>
<path fill-rule="evenodd" clip-rule="evenodd" d="M68.8738 7.86405C72.6074 14.6373 82.3527 17.4827 88.5247 22.3202C89.7029 23.3169 91.8688 22.3118 91.5335 20.8865C86.9816 14.5982 79.9104 9.78396 73.8856 4.64744C71.9851 3.42433 68.5853 5.97489 68.8738 7.86405Z" fill="white"/>
<path fill-rule="evenodd" clip-rule="evenodd" d="M299.16 66.3607C292.669 67.0043 283.545 71.166 282.636 77.1789C286.828 80.9132 312.129 69.0962 299.16 66.3607Z" fill="white"/>
<path fill-rule="evenodd" clip-rule="evenodd" d="M26.9853 184.579C26.0821 180.291 26.9615 172 22.4755 169.869C15.5673 170.09 20.2561 185.804 20.8695 189.985C24.7747 195.276 27.4521 188.106 26.9853 184.579Z" fill="white"/>
<path fill-rule="evenodd" clip-rule="evenodd" d="M76.4277 242.843C75.0595 238.026 70.2954 225.947 63.807 226.906C58.4441 229.244 74.7395 253.695 76.4277 242.843Z" fill="white"/>
<path fill-rule="evenodd" clip-rule="evenodd" d="M118.382 275.18C112.26 277.166 100.438 276.016 98.4186 282.935C99.9825 287.356 133.288 279.036 118.382 275.18Z" fill="white"/>
<path fill-rule="evenodd" clip-rule="evenodd" d="M252.124 216.719C256.311 217.032 270.511 215.281 261.078 210.769C248.542 206.243 230.978 215.602 252.124 216.719Z" fill="white"/>
<path fill-rule="evenodd" clip-rule="evenodd" d="M156.363 245.942C158.636 241.297 146.647 231.301 144.619 238.395C144.487 244.152 156.747 260.307 156.363 245.942Z" fill="white"/>
<path fill-rule="evenodd" clip-rule="evenodd" d="M59.123 66.3934C64.8102 75.4735 70.5152 52.8373 70.6592 49.0118C66.2973 43.2135 59.9142 63.3051 59.123 66.3934Z" fill="white"/>
<path fill-rule="evenodd" clip-rule="evenodd" d="M106.844 39.2197C107.432 56.6654 116.418 42.8215 115.68 34.2544C114.823 28.5329 105.49 30.5192 106.844 39.2197Z" fill="white"/>
<path fill-rule="evenodd" clip-rule="evenodd" d="M212.338 235.246C212.362 233.715 211.012 230.772 208.97 232.357C205.984 236.02 196.517 241.721 199.071 246.434C205.279 248.196 211.536 240.421 212.338 235.246Z" fill="white"/>
<path fill-rule="evenodd" clip-rule="evenodd" d="M242.594 46.8852C246.776 46.8272 265.546 43.0476 256.326 37.9609C252.334 36.9147 231.498 45.0956 242.594 46.8852Z" fill="white"/>
<path fill-rule="evenodd" clip-rule="evenodd" d="M242.981 95.3301C248.65 103.314 256.263 80.3949 247.979 79.7049C243.37 82.9543 244.898 90.2859 242.981 95.3301Z" fill="white"/>
<path fill-rule="evenodd" clip-rule="evenodd" d="M152.8 31.7377C150.539 32.2099 138.392 32.7684 143.124 36.9282C148.803 37.4947 154.643 38.7201 160.277 36.9408C165.47 32.3878 156.609 31.9527 152.8 31.7377Z" fill="white"/>
<path fill-rule="evenodd" clip-rule="evenodd" d="M288.765 203.557C289.39 214.563 301.446 188.925 296.015 187.541C289.633 188.307 289.822 198.789 288.765 203.557Z" fill="white"/>
<path fill-rule="evenodd" clip-rule="evenodd" d="M284.822 239.115C291.908 237.338 298.066 236.868 287.16 233.447C283.817 230.75 280.359 232.35 276.915 232.597C270.434 235.721 281.381 239.254 284.822 239.115Z" fill="white"/>
<path fill-rule="evenodd" clip-rule="evenodd" d="M202.224 55.541C185.449 57.2072 206.411 62.3512 208.004 58.4247C208.206 56.2883 204.533 55.6764 202.224 55.541Z" fill="white"/>
<path fill-rule="evenodd" clip-rule="evenodd" d="M140.187 200.065C143.975 199.477 152.721 203.027 153.536 198.718C154.121 197.295 154.296 195.383 152.413 194.727C137.587 191.862 122.204 192.164 107.463 188.262C92.3304 198.484 134.181 200.355 140.187 200.065Z" fill="white"/>
<path fill-rule="evenodd" clip-rule="evenodd" d="M108.152 156.218C108.982 162.166 108.576 182.079 118.967 172.224C118.42 168.03 120.051 142.826 113.353 145.549C106.945 147.883 108.893 151.182 108.152 156.218Z" fill="white"/>
<path fill-rule="evenodd" clip-rule="evenodd" d="M140.96 165.99C138.486 176.029 149.352 180.451 152.625 170.026C153.232 165.829 153.043 149.804 146.819 150.798C142.059 154.565 140.954 160.768 140.96 165.99Z" fill="white"/>
</g>
<defs>
<clipPath id="clip0_215_28">
<rect width="314" height="286" fill="white" transform="matrix(-1 0 0 1 314 0)"/>
</clipPath>
</defs>
</svg>
