<svg width="286" height="306" viewBox="0 0 286 306" fill="none" xmlns="http://www.w3.org/2000/svg">
<path fill-rule="evenodd" clip-rule="evenodd" d="M104.269 201.293H104.278C104.434 204.325 102.973 210.31 107.979 208.866C117.279 207.186 126.63 208.236 135.96 208.403C150.035 208.907 163.991 211.088 178.096 211.169C180.733 210.688 186.519 213.789 187.05 209.976C186.273 206.3 188.983 199.409 185.048 197.599C174.914 195.787 164.515 196.439 154.266 195.803C138.919 195.261 123.572 194.7 108.227 194.109C103.168 192.875 104.296 197.998 104.269 201.293ZM174.641 62.544L174.92 62.5385C174.647 47.2997 177.197 31.6302 173.948 16.6185C162.906 18.7225 158.595 67.8125 159.294 78.6412C160.017 86.8413 151.138 87.9133 149.592 80.0792C146.316 63.6253 145.724 46.8406 142.949 30.3123C137.432 0.487467 131.035 32.4429 130.31 43.8084C126.604 52.2975 134.539 92.3387 123.945 90.7522C115.872 87.7348 117.202 58.5721 114.079 49.4273C111.934 42.3949 108.88 -1.13715 102.303 26.4906C93.8893 75.1957 102.076 124.645 103.245 173.611C103.246 176.837 103.246 180.068 103.407 183.288C103.693 188.986 103.746 188.706 109.018 188.307C122.046 187.284 135.108 187.136 148.151 187.861C195.195 187.153 184.751 201.18 186.314 161.849C186.017 140.147 225.111 149.224 212.669 141.056C202.24 134.676 190.688 129.714 181.413 121.664C171.111 104.502 176.728 81.8316 174.641 62.544ZM122.3 47.3411C126.716 36.0581 124.201 22.6512 133.578 13.6714C139.014 10.7141 140.506 9.50281 144.899 15.1517C151.269 23.3861 150.558 34.6285 153.79 43.7852C159.437 32.423 159.617 16.6236 171.514 8.46289C191.146 -4.58988 183.435 85.9799 185.422 96.6317C185.6 111.486 184.385 114.97 197.791 122.675C223.465 133.595 238.369 153.221 199.887 157.93C194.951 159.332 194.362 160.33 194.839 165.457C198.557 200.775 199.39 236.304 199.399 271.789C199.925 287.147 200.322 302.496 200.974 317.848C201.562 321.091 196.803 324.773 195.083 320.909C191.821 293.469 188.959 265.212 188.708 237.515C187.488 233.101 190.449 217.375 184.468 217.698C175.143 213.909 182.132 233.747 181.366 238.536C182.138 245.446 181.896 252.319 181.136 259.213C179.275 274.479 179.396 289.875 178.99 305.225C177.891 310.124 181.913 323.857 175.153 324.16C169.304 321.275 173.688 290.252 172.227 282.153C171.871 268.302 175.18 254.593 173.981 240.769C173.722 233.403 173.022 226.012 174.996 218.803C175.134 218.056 174.777 217.44 174.172 217.432C170.411 218.052 162.738 215.499 161.046 219.553C162.574 235.453 164.189 251.395 162.752 267.367C162.32 279.177 162.023 291.008 161.77 302.826C160.397 308.148 165.799 330.326 157.991 328.524C155.435 327.341 155.975 323.116 155.073 320.732C152.735 306.636 152.885 292.236 152.96 277.997C153.95 258.685 151.225 239.247 153.884 220.046C154.271 215.309 146.387 218.061 143.382 217.323C141.785 217.344 141.438 217.935 141.453 219.761C141.567 233.426 141.845 247.092 141.736 260.755C141.579 279.963 140.28 299.159 141.23 318.365C140.721 321.526 142.594 326.394 139.13 328.072C136.808 329.041 136.634 326.061 136.549 324.476C134.99 308.72 133.626 292.997 133.641 277.134C133.292 257.796 131.267 238.38 133.459 219.089C133.646 217.603 133.202 216.987 131.822 216.951C128.775 217.677 121.85 214.875 121.028 218.639C122.337 228.858 123.158 239.121 122.591 249.427C121.226 254.182 128.126 328.959 120.69 316.687C119.415 314.237 118.498 311.599 118.594 308.803C117.975 287.001 113.42 265.514 114.463 243.636C113.381 239.013 116.761 216.206 112.18 216.338C108.98 216.123 103.562 214.354 104.515 219.533C105.016 250.997 103.429 282.59 105.648 313.976C105.077 352.735 98.2791 297.405 99.4726 288.282C100.524 212.289 94.0259 136.544 93.437 60.6152C95.5714 47.4063 93.2001 15.2029 107.971 10.9595C116.483 10.907 119.031 40.0194 122.3 47.3411Z" fill="white"/>
<path fill-rule="evenodd" clip-rule="evenodd" d="M33.1677 109.454C33.5996 113.302 28.8988 117.304 26.0612 113.409C23.4356 109.816 24.3952 105.056 22.4862 101.169C20.5033 96.8652 6.71732 102.395 1.83036 101.046C-6.10783 96.5089 15.3667 93.9586 18.0736 92.9635C22.5518 92.1677 12.2368 76.5333 23.3603 82.126C26.4577 84.9153 26.0426 91.795 31.3104 90.8668C35.2742 91.3127 43.0359 88.1168 44.8222 92.7059C45.9983 98.4026 37.2432 96.899 33.6762 98.0468C29.3562 99.0089 33.7198 106.151 33.1677 109.454Z" fill="white"/>
<path fill-rule="evenodd" clip-rule="evenodd" d="M50.778 9.6773C51.0162 11.6827 47.7873 18.0216 51.9508 18.4071C55.4031 18.1959 69.1599 25.9277 61.8119 28.0955C45.6558 22.2122 48.8192 21.6821 44.1928 37.446C43.4884 39.4657 41.7386 40.0851 39.8055 40.1735C33.0519 39.3037 37.5725 30.1419 38.0527 25.9124C39.8516 21.4503 36.7636 20.8994 33.1586 20.1831C31.4616 20.063 27.4766 17.1099 30.2977 15.9418C36.1755 14.9467 40.5603 19.2147 43.1495 11.9331C45.1177 7.79122 51.9301 -0.848858 50.778 9.6773Z" fill="white"/>
<path fill-rule="evenodd" clip-rule="evenodd" d="M260.189 97.2342C267.843 99.3453 267.344 93.7942 270.09 88.5171C276.887 77.7168 275.816 92.244 274.872 97.1686C274.292 102.846 283.354 100.793 285.379 105.084C285.831 110.29 278.399 106.659 275.621 106.307C272.281 104.454 267.862 126.219 263.351 118.654C260.069 114.238 263.154 109.76 264.432 105.183C264.71 100.575 256.263 102.6 253.588 99.7003C250.891 95.9628 258.236 97.3425 260.19 97.1267C260.189 97.1627 260.189 97.1982 260.189 97.2342Z" fill="white"/>
<path fill-rule="evenodd" clip-rule="evenodd" d="M247.527 236.803C240.806 234.314 241.818 221.902 232.88 226.398C230.965 226.738 222.074 229.935 223.549 225.973C234.095 218.468 237.403 224.023 231.624 210.58C231.437 209.678 231.309 208.638 232.266 208.097C238.847 205.263 239.802 219.914 246.534 216.171C258.842 209.51 262.918 220.505 248.492 222.374C242.908 225.402 259.445 236.831 247.527 236.803Z" fill="white"/>
</svg>
