<svg width="500" height="300" viewBox="0 0 500 300" fill="none" xmlns="http://www.w3.org/2000/svg">
<g clip-path="url(#clip0_85_12)">
<path d="M442.677 151.945C443.263 149.633 443.484 147.164 443.179 144.572L428.158 17.0828C426.802 5.5655 413.485 -0.163829 404.19 6.76926L351.033 46.42C321.673 33.6573 287.132 26.2935 250.162 26.2935C214.627 26.2935 181.341 33.0993 152.739 44.9597L96.1343 2.73777C86.8385 -4.19599 73.5224 1.53332 72.1656 13.0507L57.1451 140.54C56.7837 143.607 57.1313 146.512 57.9954 149.168C57.3371 153.765 57 158.427 57 163.147C57 238.729 143.481 300 250.162 300C356.843 300 443.324 238.729 443.324 163.147C443.324 159.375 443.1 155.64 442.677 151.945Z" fill="url(#paint0_radial_85_12)"/>
</g>
<defs>
<radialGradient id="paint0_radial_85_12" cx="0" cy="0" r="1" gradientUnits="userSpaceOnUse" gradientTransform="translate(250.162 149.865) rotate(90) scale(150.135 193.162)">
<stop stop-color="#EB0203"/>
<stop offset="1" stop-color="#D0131D"/>
</radialGradient>
<clipPath id="clip0_85_12">
<rect width="500" height="300" fill="white"/>
</clipPath>
</defs>
</svg>
