<svg width="256" height="256" viewBox="0 0 256 256" fill="none" xmlns="http://www.w3.org/2000/svg">
<g clip-path="url(#clip0_3_2)">
<mask id="mask0_3_2" style="mask-type:luminance" maskUnits="userSpaceOnUse" x="0" y="0" width="256" height="256">
<path d="M256 128C256 57.3076 198.692 0 128 0C57.3076 0 0 57.3076 0 128C0 198.692 57.3076 256 128 256C198.692 256 256 198.692 256 128Z" fill="white"/>
</mask>
<g mask="url(#mask0_3_2)">
<path d="M0 256H256V0H0V256Z" fill="#EE0000"/>
<path d="M198.334 128.242C198.546 127.411 198.624 126.524 198.515 125.592L193.116 79.7776C192.629 75.6386 187.843 73.5797 184.503 76.0713L165.401 90.3202C154.85 85.7339 142.438 83.0875 129.152 83.0875C116.382 83.0875 104.42 85.5333 94.1418 89.7954L73.8001 74.6224C70.4597 72.1307 65.6742 74.1897 65.1868 78.3285L59.7889 124.143C59.6589 125.246 59.7839 126.289 60.0945 127.244C59.8579 128.896 59.7368 130.572 59.7368 132.268C59.7368 159.429 90.8149 181.447 129.152 181.447C167.489 181.447 198.567 159.429 198.567 132.268C198.567 130.912 198.487 129.57 198.334 128.242Z" fill="black"/>
<path d="M104.818 121.886C104.818 128.04 99.8297 133.029 93.6761 133.029C87.5221 133.029 82.5337 128.04 82.5337 121.886C82.5337 115.732 87.5221 110.744 93.6761 110.744C99.8297 110.744 104.818 115.732 104.818 121.886Z" fill="white"/>
<path d="M167.71 133.098L160.743 126.131L153.906 132.969L149.888 128.951L156.726 122.114L149.758 115.146L154.23 110.675L161.197 117.642L168.035 110.804L172.052 114.822L165.216 121.66L172.182 128.626L167.71 133.098Z" fill="white"/>
</g>
</g>
<defs>
<clipPath id="clip0_3_2">
<rect width="256" height="256" fill="white"/>
</clipPath>
</defs>
</svg>
