<svg enable-background="new 0 0 369.12 100.00" viewBox="0 0 369.12 100" 
  xmlns="http://www.w3.org/2000/svg">
  <g stroke-linejoin="round">
    <path d="m39.0244 0h22.8096c21.5526 0 39.024 18.5558 39.024 40.1084v19.7832c0 21.5526-17.4714 40.1084-39.024 40.1084h-22.8096c-21.5525 0-39.02438522-18.5558-39.02438522-40.1084v-19.7832c0-21.5526 17.47188522-40.1084 39.02438522-40.1084z" fill="#7882ff"/>
    <g stroke-width=".2">
      <path d="m77.0164 50c0-1.0942-.0652-2.1733-.192-3.2335-.2878-.5855-.615-1.1749-.9811-1.7656 6.3953 5.676 9.5259 11.7984 7.6825 16.6073-1.6426 4.285-6.9199 6.7059-14.1 7.1447-7.0096.4284-15.8327-1.0323-24.8578-4.4919-9.0021-3.4508-16.5254-8.2465-21.4533-13.237-5.0732-5.1374-7.3956-10.4815-5.7489-14.7772 1.7504-4.5661 7.628-7.0155 15.5371-7.2054l.1982-.0044c-3.4762 2.8152-6.2383 6.4775-7.9721 10.6728 1.5546 4.7502 8.3051 10.3086 21.3949 15.8254 10.7099 4.5136 23.2263 6.7313 28.8149 3.2164l.2905-.1923c.8997-2.6892 1.3871-5.5674 1.3871-8.5593z" fill="#4d5cc1"/>
      <path d="m76.8244 46.7665c.1268 1.0602.192 2.1393.192 3.2335 0 2.9919-.4874 5.8701-1.3871 8.5593-5.4349 3.7851-18.2057 1.5695-29.1054-3.0241-13.0898-5.5168-19.8403-11.0752-21.3949-15.8254 1.7338-4.1953 4.4959-7.8576 7.9722-10.6727l.1356-.1091c4.6108-3.6851 10.4577-5.8884 16.8192-5.8884 13.7955 0 25.1709 10.3616 26.7684 23.7269zm-26.7685 30.1939c-14.5468 0-26.4029-11.5211-26.9412-25.9364 4.9278 4.9905 12.4512 9.7862 21.4533 13.237 9.025 3.4596 17.8482 4.9203 24.8578 4.4919-4.901 5.0613-11.768 8.2075-19.3699 8.2075z" fill="#fff"/>
      <path d="m241.807 24.8572-.276-15.96926h5.039v20.13946h-7.245l-5.028-16.5257h-.112l.281 16.5257h-4.999v-20.13946h7.55l4.68 15.96926zm-91.56-14.0911-2.784 18.4701h-5.499l3.771-20.34698h9.056l3.75 20.34698h-5.465l-2.715-18.4701zm23.719 13.6803 2.515-15.55797h8.295l.452 20.34707h-5.093l-.132-18.2976-.11.005-3.398 18.2926h-5.159l-3.403-18.2976h-.114l-.129 18.2976h-5.086l.45-20.34707h8.298l2.503 15.55797zm-40.565-.9551c.2.4915.133 1.1255.04 1.5094-.167.664-.624 1.3567-1.981 1.3567-1.271 0-2.047-.7278-2.047-1.8357l-.004-1.9757h-5.457v1.5743c0 4.5366 3.573 5.9021 7.393 5.9021 3.687 0 6.71-1.2504 7.196-4.6441.249-1.7606.065-2.9135-.02-3.3437-.863-4.2627-8.583-5.5244-9.159-7.9139-.098-.4164-.075-.8303-.024-1.063.147-.654.589-1.3667 1.861-1.3667 1.194 0 1.89.7353 1.89 1.8419v1.2555h5.079v-1.423c0-4.43406-3.981-5.12681-6.862-5.12681-3.617 0-6.57 1.19915-7.114 4.52031-.146.8966-.167 1.7106.052 2.7384.88 4.1577 8.109 5.3632 9.157 7.994zm66.157-.0402c.19.4876.132 1.1129.038 1.4956-.164.6702-.621 1.3404-1.964 1.3404-1.263 0-2.025-.714-2.025-1.8157l-.002-1.9569h-5.404l-.004 1.5556c0 4.4966 3.538 5.842 7.326 5.842 3.644 0 6.64-1.2316 7.118-4.5941.247-1.7406.065-2.8822-.021-3.3137-.852-4.2163-8.497-5.4681-9.061-7.8327-.1-.4076-.073-.8177-.027-1.0453.145-.6503.581-1.3568 1.841-1.3568 1.182 0 1.872.7278 1.872 1.8157v1.2467h5.028v-1.4043c0-4.38896-3.944-5.07292-6.79-5.07292-3.584 0-6.51 1.17157-7.044 4.46772-.148.8903-.171 1.6969.045 2.7123.876 4.1201 8.033 5.3143 9.074 7.9164zm17.077 2.7262c1.413 0 1.852-.9603 1.953-1.4667.044-.2201.051-.5153.049-.7778v-15.04773h5.159v14.58263c.004.3762-.035 1.1428-.056 1.3441-.355 3.7939-3.362 5.0205-7.105 5.0205-3.74 0-6.746-1.2266-7.097-5.0205-.017-.2013-.058-.9679-.049-1.3441v-14.58263h5.144v15.04773c-.004.2625.006.5577.049.7778.102.5064.541 1.4667 1.953 1.4667zm42.451-.2076c1.471 0 1.986-.9278 2.081-1.4704.039-.2314.054-.5165.046-.7753v-2.9498h-2.083v-2.976h7.2v5.4593c-.002.3815-.007.664-.064 1.343-.339 3.7025-3.557 5.028-7.16 5.028-3.606 0-6.821-1.3255-7.155-5.028-.059-.679-.068-.9615-.071-1.343l.003-8.5604c0-.3664.043-1.0053.086-1.3317.451-3.81761 3.531-5.02928 7.14-5.02928 3.605 0 6.77 1.20166 7.145 5.02928.059.6339.037 1.3317.04 1.3317v.6764h-5.127v-1.1428s-.005-.4827-.066-.7653c-.093-.4476-.478-1.4818-2.035-1.4818-1.475 0-1.913.9791-2.025 1.4818-.059.2576-.083.6202-.083.9528v9.3058c-.002.2588.01.5439.046.7753.098.5426.611 1.4704 2.082 1.4704zm-141.324 18.0769h8.877v47.6477h-8.877zm14.811 9.4632h8.748v5.2168c1.259-1.5943 2.858-2.8722 4.798-3.8363 1.933-.9642 4.142-1.4468 6.623-1.4468 4.744 0 8.457 1.4105 11.128 4.2314 2.678 2.8173 4.016 6.7461 4.016 11.7866v22.2327h-8.939v-21.2361c0-2.8922-.723-5.1767-2.157-6.8585-1.434-1.6782-3.591-2.5172-6.46-2.5172-2.528 0-4.648.8704-6.37 2.6134-1.715 1.7456-2.574 4.2515-2.574 7.5276v20.4708h-8.813zm37.4 0h6.529v-5.8084l8.875-6.0707v11.8791h7.767v7.899h-7.767v14.2949c0 1.6543.087 2.9923.261 4.0126.176 1.023.537 1.8057 1.079 2.3508.541.544 1.328.9029 2.348 1.0779 1.025.1726 2.385.2602 4.079.2602v8.289h-1.238c-2.959 0-5.428-.2601-7.41-.7827-1.981-.5239-3.554-1.403-4.733-2.6434-1.173-1.2405-2.012-2.8736-2.512-4.8942-.499-2.0245-.749-4.5603-.749-7.6077v-14.3574h-6.529zm44.717 7.7022c-2.651 0-4.952.5878-6.885 1.7581-1.94 1.1742-3.299 2.7198-4.08 4.6379h21.672c-.652-2.0957-1.917-3.6862-3.786-4.7704-1.871-1.0828-4.182-1.6256-6.921-1.6256zm.329 30.5494c-3.003 0-5.747-.4939-8.228-1.4793-2.476-.9866-4.601-2.3383-6.364-4.059-1.759-1.718-3.128-3.7424-4.111-6.072-.978-2.3258-1.467-4.8116-1.467-7.4538 0-2.6834.51-5.2018 1.534-7.5513 1.022-2.3484 2.424-4.3828 4.209-6.101 1.784-1.7205 3.883-3.0836 6.3-4.0902 2.416-1.0066 5.013-1.5105 7.798-1.5105 2.831 0 5.449.459 7.866 1.378 2.417.9166 4.494 2.2008 6.236 3.8538 1.737 1.6519 3.097 3.6014 4.08 5.8447.977 2.2445 1.466 4.6915 1.466 7.3449v3.1199h-31.07c.611 2.6984 1.933 4.8741 3.979 6.526 2.046 1.6543 4.638 2.4808 7.772 2.4808 2.48 0 4.631-.609 6.459-1.8281 1.827-1.2179 3.198-2.8485 4.112-4.8942l7.245 4.1778c-1.653 3.0885-3.968 5.5807-6.949 7.4737-2.985 1.8908-6.602 2.8398-10.867 2.8398zm23.234-38.2516h8.749v5.6794c1.784-3.785 5.045-5.6794 9.789-5.6794 1.391 0 2.645.155 3.756.4576 1.105.3051 2.098.6953 2.969 1.173l-3.331 8.3553c-.653-.4326-1.38-.7928-2.188-1.0754-.803-.2838-1.838-.4238-3.097-.4238-2.57 0-4.516.7277-5.842 2.1858-1.33 1.458-1.992 3.84-1.992 7.1462v20.3657h-8.813zm28.132 0h8.748v5.2168c1.259-1.5943 2.857-2.8722 4.797-3.8363 1.933-.9642 4.144-1.4468 6.624-1.4468 4.743 0 8.457 1.4105 11.128 4.2314 2.677 2.8173 4.015 6.7461 4.015 11.7866v22.2327h-8.939v-21.2361c0-2.8922-.722-5.1767-2.157-6.8585-1.433-1.6782-3.59-2.5172-6.459-2.5172-2.528 0-4.649.8704-6.369 2.6134-1.716 1.7456-2.576 4.2515-2.576 7.5276v20.4708h-8.812zm59.003 7.7022c-2.649 0-4.95.5878-6.883 1.7581-1.94 1.1742-3.3 2.7198-4.08 4.6379h21.672c-.653-2.0957-1.917-3.6862-3.787-4.7704-1.87-1.0828-4.181-1.6256-6.922-1.6256zm.331 30.5494c-3.003 0-5.749-.4939-8.228-1.4793-2.476-.9866-4.601-2.3383-6.364-4.059-1.759-1.718-3.13-3.7424-4.111-6.072-.979-2.3258-1.467-4.8116-1.467-7.4538 0-2.6834.51-5.2018 1.534-7.5513 1.021-2.3484 2.424-4.3828 4.208-6.101 1.784-1.7205 3.883-3.0836 6.301-4.0902 2.416-1.0066 5.013-1.5105 7.796-1.5105 2.833 0 5.45.459 7.868 1.378 2.417.9166 4.494 2.2008 6.236 3.8538 1.737 1.6519 3.097 3.6014 4.079 5.8447.978 2.2445 1.467 4.6915 1.467 7.3449v3.1199h-31.07c.61 2.6984 1.933 4.8741 3.979 6.526 2.046 1.6543 4.638 2.4808 7.772 2.4808 2.479 0 4.631-.609 6.459-1.8281 1.827-1.2179 3.196-2.8485 4.111-4.8942l7.246 4.1778c-1.653 3.0885-3.969 5.5807-6.949 7.4737-2.986 1.8908-6.602 2.8398-10.867 2.8398zm20.227-38.2516h6.529v-5.8084l8.875-6.0707v11.8791h7.765v7.899h-7.765v14.2949c0 1.6543.085 2.9923.26 4.0126.175 1.023.537 1.8057 1.079 2.3508.542.544 1.327.9029 2.349 1.0779 1.024.1726 2.384.2602 4.077.2602v8.289h-1.236c-2.959 0-5.43-.2601-7.41-.7827-1.982-.5239-3.555-1.403-4.733-2.6434-1.174-1.2405-2.013-2.8736-2.514-4.8942-.499-2.0245-.747-4.5603-.747-7.6077v-14.3574h-6.529z" fill="#3d3d3d" fill-rule="evenodd"/>
    </g>
  </g>
</svg>