<svg width="12" height="13" viewBox="0 0 12 13" fill="none" xmlns="http://www.w3.org/2000/svg">
<path d="M10.0833 11.0833V4.66665H1.91667V11.0833H10.0833ZM8.33333 0.583313H9.5V1.74998H10.0833C10.3928 1.74998 10.6895 1.8729 10.9083 2.09169C11.1271 2.31048 11.25 2.60723 11.25 2.91665V11.0833C11.25 11.3927 11.1271 11.6895 10.9083 11.9083C10.6895 12.1271 10.3928 12.25 10.0833 12.25H1.91667C1.26917 12.25 0.75 11.725 0.75 11.0833V2.91665C0.75 2.26915 1.26917 1.74998 1.91667 1.74998H2.5V0.583313H3.66667V1.74998H8.33333V0.583313ZM3.08333 5.83331H4.25V6.99998H3.08333V5.83331ZM7.75 5.83331H8.91667V6.99998H7.75V5.83331ZM5.41667 8.16665H6.58333V9.33331H5.41667V8.16665ZM7.75 8.16665H8.91667V9.33331H7.75V8.16665Z" fill="black"/>
</svg>
