<svg width="12" height="12" viewBox="0 0 12 12" fill="none" xmlns="http://www.w3.org/2000/svg">
<path d="M6.00008 10.6667C7.23776 10.6667 8.42474 10.175 9.29991 9.29985C10.1751 8.42468 10.6667 7.2377 10.6667 6.00002C10.6667 4.76234 10.1751 3.57536 9.29991 2.70019C8.42474 1.82502 7.23776 1.33335 6.00008 1.33335C4.7624 1.33335 3.57542 1.82502 2.70025 2.70019C1.82508 3.57536 1.33341 4.76234 1.33341 6.00002C1.33341 7.2377 1.82508 8.42468 2.70025 9.29985C3.57542 10.175 4.7624 10.6667 6.00008 10.6667ZM6.00008 0.166687C6.76613 0.166687 7.52467 0.317571 8.2324 0.610723C8.94013 0.903876 9.5832 1.33356 10.1249 1.87523C10.6665 2.41691 11.0962 3.05997 11.3894 3.7677C11.6825 4.47543 11.8334 5.23398 11.8334 6.00002C11.8334 7.54712 11.2188 9.03085 10.1249 10.1248C9.03091 11.2188 7.54718 11.8334 6.00008 11.8334C2.77425 11.8334 0.166748 9.20835 0.166748 6.00002C0.166748 4.45292 0.78133 2.96919 1.87529 1.87523C2.96925 0.781269 4.45298 0.166687 6.00008 0.166687ZM6.29175 3.08335V6.14585L8.91675 7.70335L8.47925 8.42085L5.41675 6.58335V3.08335H6.29175Z" fill="black"/>
</svg>
