<svg width="14" height="14" viewBox="0 0 14 14" fill="none" xmlns="http://www.w3.org/2000/svg">
<path d="M7.00008 2.33335C8.63341 2.33335 9.91675 3.61669 9.91675 5.25002C9.91675 6.94169 8.22508 9.45002 7.00008 11.025C5.77508 9.45002 4.08341 6.94169 4.08341 5.25002C4.08341 3.61669 5.36675 2.33335 7.00008 2.33335ZM7.00008 1.16669C4.72508 1.16669 2.91675 2.97502 2.91675 5.25002C2.91675 8.28335 7.00008 12.8334 7.00008 12.8334C7.00008 12.8334 11.0834 8.28335 11.0834 5.25002C11.0834 2.97502 9.27508 1.16669 7.00008 1.16669ZM6.59175 8.16669L9.45008 5.25002L8.63341 4.43335L6.59175 6.53335L5.65841 5.60002L4.84175 6.41669L6.59175 8.16669Z" fill="black"/>
</svg>
