<svg width="14" height="14" viewBox="0 0 14 14" fill="none" xmlns="http://www.w3.org/2000/svg">
<path d="M5.25008 1.75C5.86892 1.75 6.46241 1.99583 6.9 2.43342C7.33758 2.871 7.58341 3.46449 7.58341 4.08333H2.91675C2.91675 3.46449 3.16258 2.871 3.60017 2.43342C4.03775 1.99583 4.63124 1.75 5.25008 1.75ZM6.90675 5.72833L6.41675 10.5H5.83341V11.0833C5.83341 11.3928 5.95633 11.6895 6.17512 11.9083C6.39392 12.1271 6.69066 12.25 7.00008 12.25C7.3095 12.25 7.60625 12.1271 7.82504 11.9083C8.04383 11.6895 8.16675 11.3928 8.16675 11.0833V8.16667C8.16675 7.54783 8.41258 6.95434 8.85017 6.51675C9.28775 6.07917 9.88124 5.83333 10.5001 5.83333H11.6667L11.0834 6.41667L11.6667 7H10.5001C10.1907 7 9.89392 7.12292 9.67512 7.34171C9.45633 7.5605 9.33341 7.85725 9.33341 8.16667V11.0833C9.33341 11.7022 9.08758 12.2957 8.65 12.7332C8.21241 13.1708 7.61892 13.4167 7.00008 13.4167C6.38124 13.4167 5.78775 13.1708 5.35017 12.7332C4.91258 12.2957 4.66675 11.7022 4.66675 11.0833V10.5H4.08341L3.59341 5.72833C3.30758 5.43667 3.09758 5.075 2.99258 4.66667H7.50758C7.40258 5.075 7.19258 5.43667 6.90675 5.72833ZM5.25008 6.41667C5.09537 6.41667 4.947 6.47813 4.8376 6.58752C4.72821 6.69692 4.66675 6.84529 4.66675 7C4.66675 7.15471 4.72821 7.30308 4.8376 7.41248C4.947 7.52188 5.09537 7.58333 5.25008 7.58333C5.40479 7.58333 5.55316 7.52188 5.66256 7.41248C5.77196 7.30308 5.83341 7.15471 5.83341 7C5.83341 6.84529 5.77196 6.69692 5.66256 6.58752C5.55316 6.47813 5.40479 6.41667 5.25008 6.41667Z" fill="black"/>
</svg>
