<svg width="14" height="14" viewBox="0 0 14 14" fill="none" xmlns="http://www.w3.org/2000/svg">
<path d="M12.4892 6.75502L7.23925 1.50502C7.02051 1.28807 6.72483 1.16644 6.41675 1.16669H2.33342C2.024 1.16669 1.72725 1.2896 1.50846 1.5084C1.28966 1.72719 1.16675 2.02393 1.16675 2.33335V6.41669C1.16663 6.57064 1.19697 6.72309 1.25604 6.86525C1.31511 7.00742 1.40173 7.13649 1.51092 7.24502L6.76092 12.495C6.97966 12.712 7.27533 12.8336 7.58342 12.8334C7.89233 12.8321 8.18813 12.7083 8.40591 12.4892L12.4892 8.40585C12.7083 8.18807 12.8321 7.89227 12.8334 7.58335C12.8335 7.42941 12.8032 7.27696 12.7441 7.13479C12.6851 6.99262 12.5984 6.86355 12.4892 6.75502ZM7.58342 11.6667L2.33342 6.41669V2.33335H6.41675L11.6667 7.58335M3.79175 2.91669C3.96481 2.91669 4.13398 2.96801 4.27787 3.06415C4.42177 3.1603 4.53392 3.29695 4.60014 3.45684C4.66637 3.61672 4.6837 3.79266 4.64994 3.96239C4.61617 4.13212 4.53284 4.28803 4.41047 4.41041C4.2881 4.53278 4.13219 4.61611 3.96245 4.64987C3.79272 4.68364 3.61679 4.66631 3.4569 4.60008C3.29701 4.53386 3.16036 4.4217 3.06421 4.27781C2.96807 4.13392 2.91675 3.96475 2.91675 3.79169C2.91675 3.55962 3.00894 3.33706 3.17303 3.17297C3.33712 3.00887 3.55968 2.91669 3.79175 2.91669Z" fill="black"/>
</svg>
