<svg width="500" height="300" viewBox="0 0 500 300" fill="none" xmlns="http://www.w3.org/2000/svg">
<g clip-path="url(#clip0_76_26)">
<path d="M442.618 151.945C443.204 149.633 443.425 147.164 443.12 144.572L428.099 17.0828C426.742 5.5655 413.426 -0.163829 404.131 6.76926L350.974 46.42C321.613 33.6573 287.073 26.2935 250.103 26.2935C214.568 26.2935 181.282 33.0993 152.68 44.9597L96.0752 2.73777C86.7794 -4.19599 73.4633 1.53332 72.1065 13.0507L57.0861 140.54C56.7246 143.607 57.0722 146.512 57.9363 149.168C57.278 153.765 56.9409 158.427 56.9409 163.147C56.9409 238.729 143.422 300 250.103 300C356.784 300 443.265 238.729 443.265 163.147C443.265 159.375 443.041 155.64 442.618 151.945Z" fill="url(#paint0_radial_76_26)"/>
</g>
<defs>
<radialGradient id="paint0_radial_76_26" cx="0" cy="0" r="1" gradientUnits="userSpaceOnUse" gradientTransform="translate(250.103 149.865) rotate(90) scale(150.135 193.162)">
<stop stop-color="#EB0203"/>
<stop offset="1" stop-color="#D0131D"/>
</radialGradient>
<clipPath id="clip0_76_26">
<rect width="500" height="300" fill="white"/>
</clipPath>
</defs>
</svg>
