<svg width="329" height="321" viewBox="0 0 329 321" fill="none" xmlns="http://www.w3.org/2000/svg">
<g clip-path="url(#clip0_113_138)">
<path fill-rule="evenodd" clip-rule="evenodd" d="M16.7724 218.846C17.8404 223.183 15.1629 248.233 19.4846 247.361C22.7431 245.974 28.4266 246.965 29.5087 242.797C33.1859 230.839 38.6213 219.17 46.8925 209.933C56.878 198.424 71.1734 191.5 83.5322 204.098C118.65 236.477 95.3852 220.402 122.317 208.437C130.627 206.321 142.254 222.085 148.747 227.087C155.919 232.465 151.726 235.817 145.344 230.947C141.929 228.089 138.443 225.315 135.046 222.436C130.918 220.034 126.111 210.651 121.127 215.862C115.11 220.575 111.03 234.647 101.559 229.467C89.5865 222.28 82.0634 206.764 68.1778 203.336C49.4779 206.822 41.1978 227.421 33.4909 242.712C32.8126 244.114 33.2565 244.774 34.7903 244.705C75.4642 242.031 116.108 239.515 156.884 239.137C180.524 238.935 170.542 235.891 169.399 211.897C167.671 199.445 166.925 186.909 165.654 174.42C166.288 169.276 162.367 171.888 159.203 171.808C139.239 172.27 119.286 172.025 99.338 173.363C72.1912 175.752 44.8977 175.246 17.765 177.735C16.3601 177.974 15.9519 178.433 15.9897 179.932C16.3649 192.916 17.3872 205.849 16.7724 218.846ZM52.0805 248.22C50.5849 250.35 47.5151 248.287 45.6752 249.263C37.3891 251.045 28.5503 250.827 20.0421 251.873C15.5154 252.501 18.346 259.738 17.3062 262.984C16.1985 278.631 17.4047 294.319 18.1614 309.957C65.4052 309.944 116.849 308.994 165.447 311.489C189.808 311.969 179.92 312.192 178.533 281.805C176.922 269.919 176.096 257.884 174.156 246.044C173.009 239.984 173.719 240.598 167.919 240.874C164.285 241.046 160.651 241.218 157.016 241.366C128.47 242.268 99.4873 244.996 71.5077 247.364C70.0486 248.067 67.9497 247.502 66.3591 247.327C62.0181 248.269 56.2996 250.757 52.0396 248.203C52.4705 248.48 52.8932 248.603 53.397 248.46C52.9746 248.286 52.5333 248.237 52.0805 248.22ZM164.295 167.104C165.567 164.018 163.116 150.673 162.72 146.455C151.725 146.767 140.669 147.527 129.672 148.083C91.2562 149.902 52.8695 152.35 14.4117 153.127C10.0429 152.455 3.67323 154.47 0.466683 151.145C-0.285547 149.547 1.97672 149.247 3.03838 148.964C44.1206 143.977 85.6827 143.227 126.991 140.837C136.695 140.358 146.397 139.867 156.1 139.383C162.152 139.077 170.692 137.29 172.471 145.16C180.967 199.193 181.681 253.385 187.556 307.651C188.037 311.747 187.191 317.814 181.831 317.514C173.108 316.569 164.354 316.094 155.571 316.178C136.409 315.775 117.235 316.161 98.0661 316.16C70.6169 315.861 42.862 317.579 15.6788 313.322C10.8059 314.634 13.2561 303.831 12.1168 300.965C11.5648 292.614 10.6963 284.267 10.5852 275.895C11.106 248.737 9.08446 221.622 8.98936 194.462C8.10786 183.648 9.26685 172.372 6.58594 161.846C5.33222 155.085 14.1506 157.353 14.0986 162.863C16.2212 184.437 16.9879 170.298 48.2993 170.817C69.0738 170.393 90.0716 167.32 110.561 168.042C127.663 165.816 146.495 167.976 164.295 167.104Z" fill="white"/>
<path fill-rule="evenodd" clip-rule="evenodd" d="M31.085 89.9524C37.3422 90.5069 45.5652 91.1108 51.474 94.7057C55.162 96.4525 59.7819 101.943 52.3205 100.397C42.9223 97.9218 33.2232 97.7027 23.7119 96.1085C12.6478 90.986 25.1523 89.6196 31.085 89.9524Z" fill="white"/>
<path fill-rule="evenodd" clip-rule="evenodd" d="M237.671 276.068C243.756 274.978 265.695 316.797 251.6 304.001C249.167 300.613 228.563 276.713 237.671 276.068Z" fill="white"/>
<path fill-rule="evenodd" clip-rule="evenodd" d="M218.279 291.374C211.837 293.305 207.643 279.594 203.93 275.296C202.516 271.849 197.551 267.569 199.937 263.831C201.057 263.156 202.995 261.991 203.992 263.46C210.139 271.927 214.046 281.792 218.279 291.374Z" fill="white"/>
<path fill-rule="evenodd" clip-rule="evenodd" d="M48.5093 124.095C44.3413 123.093 12.5751 123.216 16.8435 116.56C19.8701 113.062 68.0131 123.868 48.5093 124.095Z" fill="white"/>
<path fill-rule="evenodd" clip-rule="evenodd" d="M74.6758 115.231C78.3087 115.614 97.9555 117.587 93.2238 123.827C89.0903 125.675 57.4882 117.443 74.6758 115.231Z" fill="white"/>
<path fill-rule="evenodd" clip-rule="evenodd" d="M142.274 153.503C145.085 151.339 147.311 155.582 149.882 153.209C150.887 152.282 152.181 151.831 153.546 151.981C156.832 153.35 149.812 156.252 152.525 158.098C153.628 159.329 156.292 160.146 155.924 162.1C154.364 164.087 151.748 160.69 150.112 159.995C148.251 158.371 146.875 160.91 145.271 161.596C144.225 162.138 141.467 162.356 142.146 160.462C144.762 157.292 146.512 156.455 142.274 153.503Z" fill="white"/>
<path fill-rule="evenodd" clip-rule="evenodd" d="M35.4507 163.141C35.012 158.317 41.9861 157.59 44.1032 161.139C47.1502 166.745 35.3185 169.576 35.4507 163.141Z" fill="white"/>
<path fill-rule="evenodd" clip-rule="evenodd" d="M27.6875 159.002C32.8227 159.155 28.6136 169.776 24.3664 166.032C20.9121 163.419 23.5779 158.188 27.6875 159.002Z" fill="white"/>
<path fill-rule="evenodd" clip-rule="evenodd" d="M55.6771 161.943C55.603 164.43 51.8255 166.16 50.2113 163.84C47.6679 158.898 54.8076 155.956 55.6771 161.943Z" fill="white"/>
<path fill-rule="evenodd" clip-rule="evenodd" d="M140.653 199.98C151.526 199.567 141.607 189.509 136.596 187.802C129.047 186.701 133.364 201.055 140.653 199.98ZM141.849 206.334C132.766 207.014 125.539 200.384 126.692 191.625C124.571 176.85 145.068 180.863 151.108 188.976C157.357 196.776 151.787 207.351 141.849 206.334Z" fill="white"/>
<path fill-rule="evenodd" clip-rule="evenodd" d="M150.585 286.321C150.59 286.391 150.595 286.46 150.6 286.53C157.871 286.055 162.88 289.177 159.116 279.21C153.455 251.355 151.666 257.954 126.565 260.593C122.927 262.612 125.172 278.792 124.484 283.557C124.891 286.573 125.36 288.945 128.85 288.413C136.103 287.863 143.34 286.99 150.585 286.321ZM116.443 267.97C116.217 260.726 117.24 255.15 125.433 254.722C133.613 254.308 142.812 252.04 150.568 255.31C151.851 256.581 153.273 256.781 154.995 256.691C162.085 254.721 166.34 284.899 164.308 289.399C163.691 291.203 161.6 290.827 160.083 290.863C152.492 290.56 145.032 291.886 137.528 292.667C115.076 297.552 117.139 285.735 116.443 267.97Z" fill="white"/>
<path fill-rule="evenodd" clip-rule="evenodd" d="M43.3396 272.819C44.4906 266.816 47.9105 260.39 53.8313 258.037C60.0102 254.891 61.5925 269.315 67.0149 265.789C81.1645 246.098 77.9841 265.987 84.4744 263.431C87.4913 260.877 93.3938 252.818 96.9526 258.279C97.1899 261.19 99.7131 264.886 98.2425 267.506C96.1454 268.042 94.6763 265.721 93.8203 264.131C90.3576 262.121 85.3371 274.658 79.7613 268.729C78.123 267.755 76.9072 263.005 74.6622 264.911C62.1155 284.638 58.1019 259.823 53.2505 265.761C50.6464 268.002 46.6824 279.25 43.3396 272.819Z" fill="white"/>
<path fill-rule="evenodd" clip-rule="evenodd" d="M83.8054 281.648C86.972 282.215 94.2925 279.975 94.9039 284.073C94.8006 284.896 94.2107 285.35 92.7928 285.417C78.8015 285.381 64.8541 287.137 50.8636 286.756C45.4725 282.036 80.3808 282.084 83.8031 281.429L83.8054 281.648Z" fill="white"/>
<path fill-rule="evenodd" clip-rule="evenodd" d="M73.6607 293.142C98.7683 293.66 61.4246 299.01 55.5205 296.667C53.5078 293.426 71.1118 293.241 73.6607 293.166C73.6607 293.158 73.6607 293.15 73.6607 293.142Z" fill="white"/>
<path fill-rule="evenodd" clip-rule="evenodd" d="M149.941 277.523C150.371 285.743 130.532 278.968 137.016 275.528C141.037 277.699 144.803 278.014 148.427 274.844C150.088 274.403 149.744 276.402 149.941 277.523Z" fill="white"/>
<path fill-rule="evenodd" clip-rule="evenodd" d="M142.99 266.682C143.319 259.297 153.723 267.688 149.627 269.89C146.439 271.337 142.896 271.021 142.99 266.682Z" fill="white"/>
<path fill-rule="evenodd" clip-rule="evenodd" d="M131.313 267.629C130.845 264.243 136.073 264.861 136.629 267.346C137.164 271.042 130.902 271.544 131.313 267.629Z" fill="white"/>
<path fill-rule="evenodd" clip-rule="evenodd" d="M273.525 81.5855C274.219 75.2011 270.28 77.2185 265.575 77.2111C262.575 78.4921 265.981 85.7184 265.813 88.6022C266.216 90.1012 267.171 91.9761 268.939 92.1692C274.189 92.635 272.48 84.9331 273.525 81.5855ZM211.518 89.8864C210.874 86.0203 212.653 80.1666 206.69 82.3757C204.693 83.2463 198.895 81.1106 199.575 84.6161C200.256 95.9777 210.254 110.085 211.518 89.8864ZM250.097 77.9789C248.394 78.7989 243.191 76.9261 243.261 79.9103C244.249 84.0344 245.242 88.1571 246.267 92.2714C247.227 99.5124 257.397 96.1743 256.929 89.9983C256.067 83.926 259.19 76.3125 250.097 77.9789ZM289.21 76.74C285.727 76.7176 281.027 75.6416 282.866 80.6732C283.926 85.3494 283.576 92.4792 289.007 94.3331C291.17 94.7157 295.217 96.8634 295.714 93.4052C296.52 89.4876 296.59 85.5197 296.15 81.569C295.942 75.4507 295.379 76.3721 289.21 76.74ZM235.991 87.4403C235.542 74.8553 231.588 80.5889 221.578 80.1985C218.628 81.0235 222.425 87.9089 222.535 90.2967C225.406 103.463 236.802 100.225 235.991 87.4403ZM282.165 68.9795C282.164 68.9022 282.163 68.8247 282.162 68.7478C304.944 68.5782 299.113 68.1966 293.257 49.3314C289.193 38.2995 262.36 27.2436 251.018 28.2547C234.87 32.9151 218.823 42.4397 208.052 55.4453C203.929 61.6075 199.45 67.5644 196.08 74.1876C193.365 78.9183 209.043 75.8874 211.393 75.3945C234.764 71.8394 258.58 70.2994 282.165 68.9795ZM240.395 97.1179C237.139 102.066 232.348 104.955 226.477 104.222C220.173 104.911 218.212 91.2674 215.691 99.4625C204.362 116.886 193.067 98.5877 193.791 84.9317C193.721 84.1864 193.333 83.6297 192.535 83.7241C186.584 82.5635 187.811 72.8606 189.987 68.6906C201.943 48.0772 192.697 62.8235 176.225 50.9652C169.798 47.1009 160.439 26.8529 175.404 32.3938C177.153 42.3509 187.799 48.3966 195.907 53.8768C198.568 55.8332 199.895 51.1411 201.412 49.6295C203.895 45.8989 207.192 42.8385 210.523 39.9066C210.598 38.8046 209.748 38.7832 209.244 38.4806C202.025 34.2116 197.529 24.7674 201.368 17.0918C204.273 14.3715 205.051 17.8971 205.115 20.2038C206.013 26.0318 211.554 35.9601 218.095 34.8045C225.627 30.1022 233.277 25.5133 241.688 22.5481C245.922 21.0533 239.223 9.34418 239.525 5.18569C238.318 0.549427 243.477 -1.61091 246.033 2.50616C249.276 7.0543 251.592 12.1782 252.773 17.6246C253.552 20.5116 253.557 20.4888 256.526 20.3628C265.75 20.7286 274.842 23.6869 282.905 28.2283C291.371 32.9088 293.093 2.55741 300.047 8.60909C307.065 23.5159 291.261 31.022 294.003 34.4222C299.096 37.7427 301.063 43.0463 303.144 48.4865C308.812 46.6438 314.472 46.098 319.431 42.9178C321.15 41.7643 324.278 39.6268 325.163 42.7627C329.142 49.7678 320.575 52.0264 315.127 53.1919C298.672 55.0293 305.881 52.2602 308.083 70.9471C309.51 75.802 304.228 73.7242 303.438 76.8977C303.092 83.2091 303.474 89.7129 301.835 95.8548C298.953 106.384 284.564 103.17 279.174 96.281C278.308 95.1924 277.801 95.1542 276.973 96.2866C273.699 100.294 267.248 100.866 263.288 97.9959C257.935 92.9419 252.338 112.796 240.395 97.1179Z" fill="white"/>
<path fill-rule="evenodd" clip-rule="evenodd" d="M68.6125 84.7908C67.8948 91.0476 64.6972 96.2196 73.667 91.7895C84.5064 85.7658 91.3291 95.2231 82.4092 103.594C81.176 104.739 78.719 103.38 79.3131 101.771C85.4243 86.9436 70.4356 101.542 64.0337 97.9645C54.3951 90.7838 74.9686 74.0599 47.0584 86.1753C31.4551 87.1556 70.0899 64.775 68.6125 84.7908Z" fill="white"/>
<path fill-rule="evenodd" clip-rule="evenodd" d="M88.5769 32.0503C83.2075 43.1597 72.8803 56.4502 61.7755 62.0471C51.5332 59.859 64.466 50.1461 67.2956 46.3108C70.7404 43.82 87.268 21.2036 88.5769 32.0503Z" fill="white"/>
<path fill-rule="evenodd" clip-rule="evenodd" d="M166.221 63.7541C170.83 64.8576 163.023 69.6683 161.873 71.3901C150.549 81.2697 140.031 91.9275 129.31 102.185C113.838 104.171 161.283 61.0255 166.221 63.7541Z" fill="white"/>
<path fill-rule="evenodd" clip-rule="evenodd" d="M321.091 133.592C318.342 141.869 299.549 139.908 292.726 137.618C288.404 136.881 273.137 124.778 282.112 122.512C295.999 132.018 304.735 132.42 321.091 133.592Z" fill="white"/>
<path fill-rule="evenodd" clip-rule="evenodd" d="M324.781 186.194C324.762 192.759 307.955 196.373 302.804 199.994C299.186 200.607 271.179 218.175 273.101 211.026C285.171 200.415 301.497 195.626 315.524 187.976C318.039 187.249 325.886 179.773 324.781 186.194Z" fill="white"/>
<path fill-rule="evenodd" clip-rule="evenodd" d="M300.158 159.231C295.173 159.386 270.498 153.715 277.37 146.254C284.978 148.791 292.782 153.614 301.536 152.407C307.983 152.89 314.462 149.022 320.692 150.381C326.715 157.661 304.595 158.707 300.158 159.231Z" fill="white"/>
<path fill-rule="evenodd" clip-rule="evenodd" d="M261.973 195.639C261.141 195.267 260.685 195.16 261.209 194.491C271.444 187.737 282.797 183.113 294.224 178.83C299.967 178.346 321.996 160.597 323.306 169.164C322.751 173.293 316.492 172.582 313.599 174.63C297.26 183.451 279.2 188.896 261.973 195.639Z" fill="white"/>
<path fill-rule="evenodd" clip-rule="evenodd" d="M82.9631 63.088C83.1602 56.9147 103.237 31.8621 109.236 35.8918C110.176 37.8804 107.851 39.8513 106.955 41.488C102.288 47.2789 97.9631 53.3053 94.1205 59.6842C92.3531 62.1962 89.489 67.2431 85.8473 65.4803C84.7608 64.7516 82.42 64.9745 82.9631 63.088Z" fill="white"/>
<path fill-rule="evenodd" clip-rule="evenodd" d="M213.01 124.444C234.644 123.447 243.261 145.75 230.031 137.947C218.607 122.889 202.685 133.906 192.971 129.13C196.357 124.35 206.284 125.151 213.01 124.444Z" fill="white"/>
<path fill-rule="evenodd" clip-rule="evenodd" d="M268.004 181.71C265.11 180.099 267.167 174.238 263.861 173.41C261.445 173.543 251.549 174.23 256.812 169.919C262.744 168.278 265.314 168.968 263.898 161.723C263.069 158.714 266.059 155.206 268.063 158.968C268.859 161.183 269.055 163.639 269.724 165.868C272.345 168.832 277.24 165.283 280.599 166.653C280.298 171.665 271.309 170.407 270.697 174.039C270.785 176.798 271.764 181.062 268.004 181.71Z" fill="white"/>
<path fill-rule="evenodd" clip-rule="evenodd" d="M291.641 226.979C287.269 223.052 299.786 220.032 302.242 218.297C309.881 214.992 317.549 211.757 325.206 208.497C325.976 208.111 327.751 207.511 327.989 208.623C329.121 211.019 329.999 212.625 326.61 213.797C315.173 218.765 303.555 223.267 291.641 226.979Z" fill="white"/>
<path fill-rule="evenodd" clip-rule="evenodd" d="M148.05 57.3178C146.346 63.5673 133.229 49.2076 130.612 47.0603C128.277 45.1415 127.347 42.8161 130.245 40.8819C135.303 35.6497 147.537 52.5314 148.05 57.3178Z" fill="white"/>
<path fill-rule="evenodd" clip-rule="evenodd" d="M153.617 99.4021C143.739 98.8126 171.98 75.4318 174.623 80.4912C169.481 87.6951 162.338 97.0207 153.617 99.4021Z" fill="white"/>
<path fill-rule="evenodd" clip-rule="evenodd" d="M316.988 122.828C310.279 121.216 287.805 118.971 288.86 109.296C289.946 108.119 291.619 109.89 292.702 110.393C298.342 114.09 304.593 116.034 311.185 117.065C313.514 117.937 320.71 117.747 321.408 119.824C321.23 123.016 319.633 122.565 316.988 122.828Z" fill="white"/>
<path fill-rule="evenodd" clip-rule="evenodd" d="M221.759 143.961C221.458 146.844 219.774 148.968 217.325 146.298C212.512 141.347 205.372 142.865 199.208 141.853C191.889 134.595 221.113 134.91 221.759 143.961Z" fill="white"/>
<path fill-rule="evenodd" clip-rule="evenodd" d="M127.726 71.7637C123.183 70.8946 108.165 61.1007 115.013 56.0322C121.135 57.3767 125.533 64.7535 130.83 68.3662C133.557 70.4588 130.636 72.3103 127.726 71.7637Z" fill="white"/>
<path fill-rule="evenodd" clip-rule="evenodd" d="M104.93 96.2022C101.643 96.8801 86.4909 82.8228 88.4315 80.178C96.4716 78.9862 100.485 90.4398 107.576 92.9967C109.452 94.4152 106.586 96.5302 104.93 96.2022Z" fill="white"/>
<path fill-rule="evenodd" clip-rule="evenodd" d="M263.038 122.694C262.531 122.481 262.22 122.351 261.909 122.221C261.184 123.462 262.273 124.009 263.038 122.694ZM263.382 117.495C273.225 116.69 267.332 131.195 260.121 128.512C252.685 126.716 257.145 116.671 263.382 117.495Z" fill="white"/>
<path fill-rule="evenodd" clip-rule="evenodd" d="M313.183 271.238C311.92 277.107 296.505 261.753 294.657 259.237C291.97 255.906 294.775 253.866 297.499 257.096C301.914 262.508 309.614 265.462 313.183 271.238Z" fill="white"/>
<path fill-rule="evenodd" clip-rule="evenodd" d="M106.458 70.5947C111.316 73.8533 116.131 79.0559 118.313 84.4592C113.279 85.4434 97.5088 74.91 106.458 70.5947Z" fill="white"/>
<path fill-rule="evenodd" clip-rule="evenodd" d="M48.2809 41.4702C42.7549 39.1264 54.5117 30.9141 56.814 28.8854C58.829 27.0507 63.4582 29.0346 61.5534 31.783C57.5731 35.256 53.6325 40.4606 48.2809 41.4702Z" fill="white"/>
<path fill-rule="evenodd" clip-rule="evenodd" d="M310.185 241.207C306.842 241.485 305.905 238.38 309.312 237.436C315.719 235.986 322.683 231.09 329 231.797C326.405 237.633 316.034 239.501 310.185 241.207Z" fill="white"/>
<path fill-rule="evenodd" clip-rule="evenodd" d="M214.08 158.387C213.928 159.942 212.752 160.969 211.514 159.404C209.465 157.196 206.477 156.681 204.033 155.108C201.518 148.6 215.378 153.398 214.08 158.387Z" fill="white"/>
<path fill-rule="evenodd" clip-rule="evenodd" d="M319.057 260.072C317.159 260.564 311.604 259.159 314.159 256.743C317.329 255.507 321.569 255.382 324.664 256.883C327.035 259.924 320.939 260.079 319.065 260.219C319.062 260.17 319.06 260.121 319.057 260.072Z" fill="white"/>
<path fill-rule="evenodd" clip-rule="evenodd" d="M179.052 104.475C176.619 107.755 172.673 103.951 173.46 100.735C176.128 95.9479 178.933 100.973 179.052 104.475Z" fill="white"/>
<path fill-rule="evenodd" clip-rule="evenodd" d="M292.76 269.399C302.333 272.544 301.389 279.366 292.667 272.368C291.877 271.34 291.618 270.407 292.76 269.399Z" fill="white"/>
<path fill-rule="evenodd" clip-rule="evenodd" d="M288.994 279.682C287.653 281.075 285.026 279.125 284.135 277.813C284.727 273.997 288.284 277.926 288.994 279.682Z" fill="white"/>
<path fill-rule="evenodd" clip-rule="evenodd" d="M251.454 62.5012C265.557 62.88 264.329 51.985 257.529 43.3323C252.688 39.5429 245.677 41.3442 240.77 44.1909C236.992 46.2593 236.27 50.2929 237.285 54.2555C238.73 61.1157 245.192 62.5231 251.454 62.5012ZM249.902 68.2344C217.383 69.2017 223.21 29.1686 254.207 34.7169C274.22 41.0133 273.826 70.6893 249.902 68.2344Z" fill="white"/>
<path fill-rule="evenodd" clip-rule="evenodd" d="M248.426 56.5843C237.794 55.5475 245.8 41.0247 252.812 47.0396C259.095 50.4165 254.958 57.5002 248.426 56.5843Z" fill="white"/>
</g>
<defs>
<clipPath id="clip0_113_138">
<rect width="329" height="321" fill="white"/>
</clipPath>
</defs>
</svg>
