<svg width="482" height="501" viewBox="0 0 482 501" fill="none" xmlns="http://www.w3.org/2000/svg">
<path fill-rule="evenodd" clip-rule="evenodd" d="M197.99 322.384C202.066 276.98 162.502 270.697 131.803 294.253C124.468 300.35 117 306.353 111.505 314.327C109.819 317.854 104.955 317.182 103.467 313.845C102.884 312.51 101.965 311.613 100.506 311.296C89.1339 309.028 79.7881 299.462 67.6535 301.239C47.572 302.307 21.9051 312.486 25.1835 336.679C28.8257 386.111 101.94 418.474 135.93 449.592C143.986 456.101 143.477 457.314 148.267 446.918C152.351 438.054 155.838 428.934 160.436 420.285C175.029 389.186 199.078 358.052 197.99 322.384ZM210.956 321.861C212.235 357.613 190.151 387.647 174.373 418.005C164.938 432.833 162.851 452.275 149.965 464.661C149.389 465.189 147.646 465.519 147.549 465.339C146.155 462.77 143.729 465.093 141.996 464.049C122.485 452.451 104.728 437.475 86.2107 424.134C56.9238 402.218 19.9328 381.207 12.9869 342.059C3.77177 305.552 46.3387 282.29 77.6906 291.122C86.8864 291.808 99.607 306.078 105.097 304.198C133.703 256.861 216.706 251.561 210.956 321.861Z" fill="white"/>
<path fill-rule="evenodd" clip-rule="evenodd" d="M23.7133 213.883C23.6777 213.885 23.6422 213.888 23.606 213.89C24.5905 229.047 28.3211 243.93 29.1512 259.148C29.2815 262.094 29.6962 264.415 33.3738 263.094C63.7087 254.657 93.1364 242.107 124.84 239.619C128.234 238.723 136.563 238.769 135.219 233.63C132.686 225.192 129.325 216.879 127.628 208.222C125.325 201.676 128.504 189.372 123.169 185.431C114.487 195.834 109.304 208.887 105.188 221.796C101.077 227.849 92.68 219.455 89.3497 215.633C85.1187 213.294 76.8834 183.997 73.7967 195.115C68.8091 203.069 75.5945 233.566 61.4636 229.124C49.9457 224.178 40.1296 216.146 29.6155 209.457C24.541 205.021 22.7077 208.547 23.7133 213.883ZM72.7175 164.342C77.9813 163.729 87.0491 167.107 83.6947 173.718C81.6269 176.964 77.1264 179.448 81.8698 182.723C107.112 224.405 92.7505 202.56 117.557 177.414C122.067 173.565 123.53 172.329 119.074 167.362C112.322 149.59 131.328 152.102 138.775 162.855C142.022 166.763 141.058 170.932 137.588 174.355C132.13 176.88 145.55 216.91 147.314 223.751C149.07 229.61 156.177 246.843 146.031 247.021C119.119 245.399 91.6238 255.43 65.6374 262.525C54.9809 264.418 20.7441 281.574 21.1034 262.214C19.9604 249.284 16.9731 236.648 14.3916 223.991C11.9415 216.721 16.2322 205.089 9.59513 200.352C3.15098 198.483 3.68694 191.312 3.41504 185.878C4.31574 174.294 19.4154 179.778 21.6653 187.873C22.1307 193.523 24.1383 194.855 29.1506 197.018C36.8729 202.236 44.5318 207.548 52.1938 212.854C55.1081 214.893 60.2669 220.597 60.6666 213.444C61.9116 203.274 63.1625 193.103 67.9434 183.798C69.119 181.661 66.8696 180.102 65.6717 178.612C60.6377 172.95 64.4533 162.462 72.7169 164.212C72.7175 164.256 72.7175 164.299 72.7175 164.342Z" fill="white"/>
<path fill-rule="evenodd" clip-rule="evenodd" d="M67.3239 456.813C65.891 466.077 66.8407 476.021 63.2982 484.806C58.9 490.524 54.5665 482.92 54.8059 478.368C54.7858 471.184 53.0811 442.899 61.0518 441.624C70.8743 440.059 65.359 452.138 67.3239 456.813Z" fill="white"/>
<path fill-rule="evenodd" clip-rule="evenodd" d="M32.6863 430.964C28.7635 439.23 21.1734 446.138 15.7406 453.589C13.8298 456.352 11.7819 454.912 9.41579 453.278C-1.18836 448.881 31.8122 410.25 32.6863 430.964Z" fill="white"/>
<path fill-rule="evenodd" clip-rule="evenodd" d="M235.145 342.477C241.452 341.907 270.775 352.605 261.721 359.53C251.409 355.501 240.307 355.498 229.557 353.928C223.727 352.969 223.67 352.637 225.407 347.051C226.455 342.85 232.367 343.542 235.145 342.477Z" fill="white"/>
<path fill-rule="evenodd" clip-rule="evenodd" d="M118.022 476.266C115.923 483.889 118.105 492.318 115.331 499.049C89.6978 476.436 113.8 450.902 118.022 476.266Z" fill="white"/>
<path fill-rule="evenodd" clip-rule="evenodd" d="M209.777 453.499C209.6 456.96 205.946 458.356 203.114 457.166C166.88 441.692 185.955 419.509 209.777 453.499Z" fill="white"/>
<path fill-rule="evenodd" clip-rule="evenodd" d="M230.394 404.41C223.188 402.265 209.161 399.767 206.362 391.577C207.801 380.727 220.046 389.669 225.068 392.819C229.171 395.542 243.125 403.179 230.394 404.41Z" fill="white"/>
<path fill-rule="evenodd" clip-rule="evenodd" d="M353.437 213.232C353.547 209.562 352.33 206.957 348.675 205.626C345.843 205.267 341.344 199.458 339.226 202.913C337.39 211.701 322.178 220.402 324.449 228.06C326.595 232.497 330.494 234.179 335.185 232.449C343.24 229.232 353.832 223.144 353.437 213.232ZM297.837 215.621H297.951C294.443 236.27 318.616 213.762 323.247 207.384C331.816 196.633 334.031 174.704 316.169 191.508C312.095 202.016 295.311 202.953 297.837 215.621ZM273.873 191.909C271.369 208.856 298.14 195.277 304.469 189.944C308.268 185.903 323.981 170.053 314.07 167.03C302.589 167.35 291.978 172.71 281.578 177.019C274.632 179.516 273.98 185.662 273.873 191.909ZM273.35 117.578C274.702 128.539 273.683 146.315 286.441 151.993C288.437 152.881 290.039 151.941 289.922 149.777C290.302 138.292 286.095 126.262 287.547 115.091C290.554 109.998 296.164 110.176 299.384 115.055C302.57 120.219 330.489 138.243 314.222 140.114C291.582 126.576 303.064 132.738 298.107 151.765C294.453 163.824 279.129 160.955 273.378 152.099C269.063 149.496 267.824 132.815 263.867 135.723C250.609 149.318 236.453 161.995 224.729 176.988C217.004 186.652 209.811 197.677 208.814 210.319C213.852 216.182 234.301 195.263 240.474 192.102C263.31 178.274 284.588 159.738 312.339 157.627C329.088 156.961 322.845 170.48 327.603 173.845C353.043 176.703 338.29 188.635 344.784 191.847C351.318 191.644 358.682 193.324 362.667 198.878C364.727 207.462 369.892 200.441 374.573 198.164C386.206 191.506 393.373 186.692 388.317 172.047C385.499 163.307 379.623 150.246 389.348 144.878C400.976 136.021 412.599 126.802 421.578 115.14C424.259 102.234 395.8 91.8853 388.987 81.4556C381.896 73.55 374.691 65.736 365.308 60.5909C363.395 59.3403 362.518 59.5675 360.917 61.5239C349.372 74.6438 336.464 86.5256 324.388 99.1132C309.826 110.362 271.489 71.3332 273.35 117.578ZM413.087 31.8265C412.685 41.1395 420.304 50.792 403.427 49.6798C391.019 48.5403 382.408 39.87 383.547 58.6014C386.558 65.1871 394.426 69.5783 398.805 75.7015C399.945 76.7741 401.232 76.0318 401.199 74.5379C399.723 33.9975 428.808 71.8609 429.326 60.5743C428.492 50.8217 435.764 34.646 446.62 44.6722C448.333 45.6847 450.972 50.9843 452.861 48.1453C454.258 42.0719 453.46 28.3785 463.384 32.0772C465.141 32.7898 466.41 34.504 468.584 34.4588C476.66 36.5577 471.434 46.8958 463.936 41.4417C455.684 38.4837 463.529 69.8868 441.42 50.903C429.506 53.3659 448.593 80.8036 413.088 66.262C407.939 66.6518 411.416 77.5863 409.276 81.2381C405.437 85.1725 417.586 95.4992 418.938 91.6043C418.379 83.4073 421.331 73.8997 431.451 78.3876C436.275 79.2107 445.412 91.8218 446.784 81.9238C448.555 76.0209 448.614 60.2555 458.139 64.3972C464.223 68.7134 464.804 69.7494 467.036 61.8524C467.929 60.1399 470.131 59.9991 471.459 61.3133C476.653 65.6616 473.775 72.7155 472.863 78.3739C463.627 92.2087 459.532 54.7299 451.705 89.8162C447.798 98.6232 437.795 90.5036 432.048 88.1363C426.773 86.9549 428.686 98.8144 427.845 102.337C427.854 106.856 430.428 109.463 433.979 111.451C438.341 111.496 436.652 102.997 439.149 100.138C446.602 84.6419 464.075 120.271 464.115 98.3788C465.95 77.2046 482.253 92.5573 479.595 99.9139C472.211 103.743 474.181 94.5491 470.26 108.363C462.186 126.787 445.334 92.3609 442.917 122.061C442.374 124.323 442.699 126.349 444.714 127.848C448.589 131.378 450.248 133.675 455.042 129.653C460.538 125.828 465.973 121.914 471.441 118.049C474.132 115.502 476.107 118.747 478.489 120.162C487.416 127.699 463.464 134.682 458.97 138.777C452.371 143.36 447.623 139.086 443.189 134.062C438.072 132.277 434.129 119.594 429.482 122.302C419.427 132.655 408.947 142.759 398.81 152.972C409.86 188.86 402.477 197.385 367.43 211.346C366.006 211.809 365.102 212.625 364.916 213.922C362.681 226.712 352.396 235.781 341.434 241.502C320.67 253.165 320.837 229.603 312.393 231.866C294.258 244.098 279.835 235.946 284.743 213.641C282.582 207.427 268.551 216.779 265.51 205.902C262.171 202.167 265.949 190.456 262.289 190.635C246.958 199.269 233.674 211.38 218.128 219.856C187.883 234.028 200.872 189.525 209.98 176.855C223.451 157.462 241.804 141.225 262.154 129.323C268.81 126.572 263.816 118.011 264.815 112.305C265.061 103.938 268.048 91.9488 276.815 89.0526C286.942 79.8111 303.562 86.4169 315.053 90.8087C316.798 91.6735 318.886 92.6654 320.383 90.9323C330.924 79.3561 342.368 68.0987 356.007 60.2675C362.987 56.1877 351.12 52.5903 348.671 49.5493C337.005 34.7662 385.658 12.3853 395.764 4.50837C438.662 -11.9244 374.327 30.2112 367.327 34.856C365.045 37.4861 355.159 40.7772 358.77 44.6252C362.354 45.6876 375.233 58.2934 376.776 53.517C374.16 21.8644 403.483 48.9873 406.134 39.6479C403.542 34.0393 402.517 24.6976 409.57 22.3114C415.838 18.8686 428.04 36.1713 426.837 23.7423C428.308 -2.65026 451.018 28.3218 447.796 9.73068C447.46 6.24437 449.522 4.06994 451.665 1.9453C460.018 0.507505 456.646 15.7051 455.971 20.7213C452.97 32.4629 438.246 19.145 434.954 23.3411C434.502 46.9245 427.76 38.2582 413.087 31.8265Z" fill="white"/>
<path fill-rule="evenodd" clip-rule="evenodd" d="M380.797 276.844C422.702 282.419 412.104 299.229 435.122 274.087C436.303 273.008 437.784 271.789 439.722 272.349C443.286 276.699 436.138 286.399 433.505 290.836C428.677 295.9 465.379 303.488 465.901 310.759C463.04 320.512 438.939 304.088 431.702 303.057C422.66 295.743 405.158 343.17 397.185 338.185C384.203 328.631 421.937 299.985 411.952 295.503C408.027 291.075 367.366 282.769 380.797 276.844Z" fill="white"/>
<path fill-rule="evenodd" clip-rule="evenodd" d="M417.671 191.229C423.663 193.9 427.201 212.328 433.513 209.931C442.19 205.645 451.014 201.604 460.171 198.458C469.525 194.601 477.255 198.763 464.767 204.898C457.257 209.122 449.634 213.148 442.123 217.373C436.395 220.596 435.754 220.067 439.994 226.32C443.582 233.784 456.272 247.999 450.745 255.62C442.171 255.875 435.752 237.025 430.033 230.896C426.817 222.762 420.917 229.908 415.917 231.947C410.277 233.352 381.537 257.136 385.246 240.678C394.488 231.95 406.336 226.555 416.804 219.459C428.619 216.315 405.389 195.424 417.671 191.229Z" fill="white"/>
<path fill-rule="evenodd" clip-rule="evenodd" d="M61.9573 90.1822C77.0826 63.6979 112.01 49.8732 137.587 33.1329C150.604 24.8756 163.388 16.1229 176.267 7.75022C185.258 5.07682 182.713 15.9161 176.859 18.2278C140.205 44.6133 100.15 66.6707 61.9573 90.1822Z" fill="white"/>
<path fill-rule="evenodd" clip-rule="evenodd" d="M405.545 376.011C404.11 383.389 415.491 383.29 420.131 386.261C422.785 387.354 425.761 385.682 428.227 387.217C437.451 401.254 413.074 393.652 406.988 391.01C396.672 386.78 403.102 426.784 390.119 419.655C381.134 414.463 397.188 388.051 390.219 384.188C386.197 381.92 379.725 382.271 377.111 378.333C379.272 372.038 391.372 378.429 395.459 376.037C397.737 374.239 397.752 369.76 400.136 367.746C405.233 365.627 406.062 372.199 405.545 376.011Z" fill="white"/>
<path fill-rule="evenodd" clip-rule="evenodd" d="M211.729 29.1169C185.365 45.8537 157.674 63.5771 131.193 81.3478C104.28 84.8609 210.988 9.50685 211.729 29.1169Z" fill="white"/>
<path fill-rule="evenodd" clip-rule="evenodd" d="M460.307 393.114C459.882 406.869 454.003 408.785 449.277 394.843C448.951 389.677 448.185 384.515 447.412 379.39C445.358 371.744 432.398 374.197 429.312 367.958C431.304 358.229 446.044 371.949 447.664 362.558C447.722 359.39 450.301 351.878 454.181 355.72C458.855 360.764 455.839 369.852 461.661 373.623C466.537 375.273 476.439 382.466 466.548 385.117C464.659 385.486 462.568 383.468 460.985 384.947C458.852 387.576 460.132 389.637 460.307 393.114Z" fill="white"/>
<path fill-rule="evenodd" clip-rule="evenodd" d="M232.179 9.26855C250.301 14.3146 263.818 29.6857 280.157 38.7903C285.622 42.8078 292.881 44.9497 296.816 50.7165C298.778 55.983 290.137 52.9061 288.046 51.2572C266.099 42.8392 248.895 27.7712 231.699 12.3562C230.251 11.3471 230.514 9.60188 232.179 9.26855Z" fill="white"/>
<path fill-rule="evenodd" clip-rule="evenodd" d="M197.023 67.3202C181.322 66.6411 225.838 34.5077 228.71 44.2937C229.774 49.1896 221.418 49.2432 221.559 53.7037C214.49 58.7707 206.015 66.1521 197.023 67.3202Z" fill="white"/>
<path fill-rule="evenodd" clip-rule="evenodd" d="M359.788 274.44C345.433 269.344 351.148 291.397 344.05 285.271C339.313 281.253 348.157 272.904 341.83 270.332C339.04 269.107 334.068 268.693 334.182 264.803C335.65 261.03 340.858 262.767 343.926 263.241C349.344 266.137 349.43 252.213 354.431 257.198C357.044 260.212 351.972 265.195 356.162 266.932C360.079 267.228 367.071 274.032 359.788 274.44Z" fill="white"/>
<path fill-rule="evenodd" clip-rule="evenodd" d="M276.36 13.1714C286.439 17.7897 296.229 25.6297 303.64 34.0014C307.983 51.1635 262.38 14.1799 276.36 13.1714Z" fill="white"/>
<path fill-rule="evenodd" clip-rule="evenodd" d="M349.938 301.673C352.031 301.619 353.315 303.148 354.107 300.922C362.749 297.99 358.711 302.661 362.516 307.836C365.267 310.627 361.418 317.288 357.858 315.621C356.042 314.583 354.406 315.256 353.026 316.074C349.014 318.262 344.686 313.158 344.448 309.463C344.109 306.608 347.546 302.72 349.938 301.673Z" fill="white"/>
<path fill-rule="evenodd" clip-rule="evenodd" d="M114.388 105.331C83.0074 104.648 112.811 91.8851 125.697 97.546C134.5 104.25 118.54 105.639 114.388 105.331Z" fill="white"/>
<path fill-rule="evenodd" clip-rule="evenodd" d="M159.368 123.421C132.762 122.022 158.978 111.75 169.897 116.268C179.004 121.921 163.349 123.217 159.368 123.421Z" fill="white"/>
<path fill-rule="evenodd" clip-rule="evenodd" d="M183.433 102.334C189.278 99.6689 217.554 94.5537 220.998 99.9237C219.754 102.262 217.291 101.741 215.308 102.071C204.555 102.411 194.029 105.858 183.433 102.334Z" fill="white"/>
<path fill-rule="evenodd" clip-rule="evenodd" d="M441.333 425.401C438.958 418.355 443.371 419.56 448.355 420.227C451.011 420.404 449.743 422.988 450.426 424.78C450.202 428.525 444.088 429.533 441.561 431.936C438.529 434.243 432.355 421.427 441.333 425.401Z" fill="white"/>
<path fill-rule="evenodd" clip-rule="evenodd" d="M312.132 16.0984C317.311 16.6358 321.572 24.887 320.29 29.7545C315.341 29.9741 301.755 18.2591 312.132 16.0984Z" fill="white"/>
<path fill-rule="evenodd" clip-rule="evenodd" d="M239.536 58.9062C241.229 54.135 245.612 52.1847 250.356 52.7935C256.529 56.2892 245.753 64.7452 241.495 63.8377C239.099 62.8688 241.315 60.1898 239.536 58.9062Z" fill="white"/>
<path fill-rule="evenodd" clip-rule="evenodd" d="M184.757 135.957C178.578 136.826 175.225 133.73 181.192 129.878C185.884 128.594 190.955 127.716 195.747 128.763C201.53 134.244 186.937 135.62 184.757 135.957Z" fill="white"/>
<path fill-rule="evenodd" clip-rule="evenodd" d="M298.81 65.8567C302.026 67.1921 307.06 66.6172 309.3 69.2135C306.318 72.1525 298.841 74.5107 294.865 72.3103C290.775 67.1844 295.051 66.4594 298.81 65.8567Z" fill="white"/>
<path fill-rule="evenodd" clip-rule="evenodd" d="M114.919 133.765C130.617 133.894 114.008 141.956 107.711 140.261C102.943 136.324 112.03 133.045 114.919 133.765Z" fill="white"/>
<path fill-rule="evenodd" clip-rule="evenodd" d="M375.988 121.074C368.742 130.894 371.929 128.787 377.342 138.229C379.155 149.905 370.904 142.368 367.564 137.298C361.848 134.452 358.531 147.848 352.939 149.484C351.904 150.006 350.87 149.793 350.043 148.87C338.906 140.15 361.059 133.612 355.457 125.171C352.697 121.152 349.457 117.194 347.001 113.054C348.996 100.254 360.612 124.34 365.563 120.97C368.853 119.087 374.585 114.904 375.988 121.074Z" fill="white"/>
</svg>
