<svg width="313" height="313" viewBox="0 0 313 313" fill="none" xmlns="http://www.w3.org/2000/svg">
<g clip-path="url(#clip0_113_115)">
<path fill-rule="evenodd" clip-rule="evenodd" d="M36.014 207.456C31.1628 208.248 35.0217 210.141 37.266 211.407C40.9154 213.585 44.393 216.053 48.2586 217.872C54.0506 220.507 59.3517 224.113 63.5309 228.948C64.5526 230.093 64.881 230.026 65.7736 228.869C66.8162 226.527 76.5881 217.197 74.4663 215.974C61.3167 214.18 49.4832 208.023 36.014 207.456ZM46.5512 204.263C47.003 205.256 47.8529 205.244 48.5674 205.268C53.418 205.676 58.7501 206.527 63.2323 208.134C64.3657 209.38 65.6496 209.305 67.0479 209.319C70.5171 209.643 73.8192 210.873 77.3504 210.986C84.8967 211.798 92.4479 213.418 99.887 215.013C103.937 216.396 103.76 217.169 106.389 212.429C109.212 207.339 112.553 202.641 116.763 198.577C140.966 174.977 112.232 185.66 97.9907 188.925C80.5813 193.134 63.6085 198.92 46.5512 204.263ZM83.5409 278.429C83.596 278.43 83.6511 278.431 83.7064 278.432C83.8449 270.679 83.9523 262.925 84.2244 255.176C84.4375 252.047 80.3197 251.442 79.1089 248.848C75.3845 243.602 68.191 243.001 63.8806 238.364C57.0093 230.307 47.6536 225.955 38.6221 220.97C35.9769 219.658 33.8588 216.745 31.006 216.283C30.1846 222.482 31.7322 228.842 31.5034 235.129C31.2774 243.523 30.5678 251.91 30.4585 260.312C30.8958 265.152 28.7936 272.861 33.6285 275.74C44.4418 280.868 54.9171 286.938 64.7934 293.704C70.1081 297.74 76.3795 300.199 82.1348 303.528C83.6459 303.933 83.0494 301.579 83.1996 300.707C83.3161 293.281 83.4277 285.855 83.5409 278.429ZM90.1524 280.667C90.0396 280.667 89.927 280.668 89.8144 280.668C90.6848 283.723 87.0402 310.78 91.7719 306.212C108.474 294.475 128.895 289.887 146.829 281.039C154.028 278.484 160.089 272.794 167.847 271.592C169.344 271.597 169.352 271.499 169.59 269.865C170.779 257.578 179.533 220.817 164.301 216.55C149.586 213.324 135.03 209.317 120.271 206.307C117.622 201.434 135.211 203.998 137.645 204.947C144.12 206.498 150.533 208.344 157.026 209.794C157.399 209.843 157.39 209.342 157.275 209.155C153.579 206.301 149.432 203.996 145.61 201.292C128.812 191.662 133.082 185.628 125.181 197.104C120.654 202.144 115.985 207.09 112.483 212.944C109.694 216.764 107.16 223.264 101.375 220.665C95.1198 217.889 88.1522 218.002 81.4874 216.908C77.6056 217.862 76.2998 223.615 73.4087 226.309C70.8626 228.486 71.5449 231.205 68.9509 233.228C67.729 236.038 81.3267 239.973 82.8788 244.94C84.6518 247.398 87.9993 250.501 91.2452 249.364C108.794 242.522 127.292 238.003 145.169 231.952C151.562 230.075 158.063 228.518 163.991 225.32C165.281 224.346 169.195 224.924 167.932 227.074C163.181 230.979 156.802 232.006 151.163 234.157C131.195 241.227 110.704 246.909 90.8982 254.331C89.2231 254.898 89.769 256.677 89.7898 258.045C89.9141 265.586 90.0323 273.126 90.1524 280.667ZM169.454 275.368C167.116 278.986 163.859 279.7 161.131 281.211C151.538 286.443 141.517 290.909 131.125 294.311C117.074 299.335 103.408 305.639 90.0859 312.312C88.3548 312.967 84.6503 313.929 85.5267 310.735C75.0926 307.566 63.6874 300.636 53.7138 294.434C45.369 290.618 38.2047 284.349 29.3161 281.797C28.1426 281.516 26.4235 280.861 26.5424 279.451C23.5274 258.235 26.3766 236.754 25.2254 215.359C25.5865 210.849 23.4395 208.658 29.1093 206.873C58.2261 195.522 87.7775 185.192 118.455 178.953C119.413 178.73 120.351 178.545 120.993 177.635C124.048 175.565 127.624 180.218 130.139 181.764C131.305 183.102 133.997 182.471 134.076 184.546C135.154 187.296 138.672 188.575 140.798 190.549C145.165 193.643 149.754 196.409 153.839 199.926C159.628 204.21 166.221 207.474 170.101 213.855C170.849 214.693 171.68 215.398 172.946 214.845C174.856 215.697 177.035 217.521 177.965 219.88C183.819 237.447 178.627 255.349 177.644 273.123C178.284 281.878 169.826 282.362 169.454 275.368Z" fill="white"/>
<path fill-rule="evenodd" clip-rule="evenodd" d="M25.7665 196.526C21.5759 190.94 17.5235 184.977 12.4791 180.312C8.08565 178.993 7.94991 181.604 10.7525 184.244C26.128 198.868 12.4096 191.161 5.27346 200.89C5.03179 201.767 5.93859 201.718 6.54262 201.499C13.103 199.936 19.273 198.68 25.7665 196.526ZM11.3321 192.854C7.63029 187.968 -0.597393 181.683 6.79422 175.623C14.7366 173.524 19.7934 181.441 24.6343 186.486C26.583 188.605 38.7518 202.893 30.3965 201.396C28.7436 200.561 27.3072 200.678 25.7094 201.236C18.4628 203.456 10.9342 205.591 3.344 205.845C-5.6397 203.008 5.70594 192.575 11.3321 192.854Z" fill="white"/>
<path fill-rule="evenodd" clip-rule="evenodd" d="M59.6123 154.5C56.0474 154.308 56.7318 156.795 58.9456 158.162C61.5014 159.121 69.1937 166.704 70.9272 164.601C74.6019 155.459 76.6843 149.914 64.8192 156.469C62.9066 157.678 61.4541 153.842 59.6123 154.5ZM78.9138 154.212C78.4497 160.037 75.1413 165.649 74.3546 171.443C74.3482 172.832 73.0388 173.749 71.5959 173.595C68.9038 172.609 69.4997 169.075 65.2008 167.632C60.6036 164.584 52.9174 161.804 52.4343 155.577C52.53 152.726 54.8688 150.72 57.7045 151.063C60.2178 150.745 62.4603 154.225 64.6654 152.321C68.9535 147.911 79.9022 144.491 78.9138 154.212Z" fill="white"/>
<path fill-rule="evenodd" clip-rule="evenodd" d="M101.78 110.815C101.4 114.506 94.725 137.034 89.8115 132.185C89.9316 126.72 85.1617 125.142 81.1384 122.779C76.7949 120.787 69.7187 112.176 77.711 110.347C79.7452 110.164 83.4663 110.05 84.3719 112.239C82.9944 113.48 77.0285 112.052 79.1045 115.49C80.6313 117.1 91.077 125.687 92.367 123.218C96.1609 114.161 101.362 106.648 87.2997 114.493C85.8779 115.254 85.7585 112.787 86.4344 112.063C89.4308 107.571 101.859 101.52 101.78 110.815Z" fill="white"/>
<path fill-rule="evenodd" clip-rule="evenodd" d="M147.305 154.726C145.982 158.569 149.255 163.118 149.918 167.087C150.521 170.063 158.471 159.018 158.51 157.825C157.235 157.49 155.971 157.413 154.886 158.368C152.047 160.218 150.323 154.817 147.305 154.726ZM143.604 159.829C139.684 154.155 144.095 146.541 150.273 152.526C152.471 156.079 155.84 154.012 159.032 153.279C162.753 152.089 166.203 156.072 164.344 159.542C162.208 162.764 159.878 165.944 157.611 169.111C145.41 186.022 146.252 169.47 143.455 158.662C142.998 159.058 143.42 159.418 143.604 159.829Z" fill="white"/>
<path fill-rule="evenodd" clip-rule="evenodd" d="M145.358 254.08C144.828 244.541 134.859 260.089 132.161 257.779C130.086 254.82 122.457 256.271 126.105 260.182C129.815 262.264 134.094 263.123 137.719 265.353C138.848 265.996 140.648 267.299 141.267 265.467C142.668 261.781 144.947 258.004 145.358 254.08ZM150.889 253.909C151.421 259.771 147.871 264.984 146.13 270.393C145.192 273.132 142.257 274.417 139.936 272.342C135.036 267.654 127.685 267.718 122.711 263.279C115.47 257.101 124.186 247.984 131.45 252.67C133.769 254.139 135.164 249.891 137.162 249.018C142.059 244.499 152.473 245.595 150.889 253.909Z" fill="white"/>
<path fill-rule="evenodd" clip-rule="evenodd" d="M58.3617 260.905C59.1015 258.327 58.6272 253.388 61.7533 251.72C68.3034 248.252 64.7319 272.169 60.9491 267.243C58.4857 265.538 58.3211 264.149 58.3617 260.905Z" fill="white"/>
<path fill-rule="evenodd" clip-rule="evenodd" d="M47.1209 250.274C46.9015 252.95 46.3962 262.052 42.187 259.016C40.1772 255.786 41.2856 251.747 42.094 248.282C43.8781 244.063 47.753 246.257 47.1209 250.274Z" fill="white"/>
<path fill-rule="evenodd" clip-rule="evenodd" d="M48.9615 272.675C51.7081 273.043 54.1955 273.648 56.0064 275.79C55.5718 281.461 38.1681 274.603 48.9615 272.675Z" fill="white"/>
<path fill-rule="evenodd" clip-rule="evenodd" d="M255.64 109.196C255.456 114.272 256.227 119.274 256.436 124.343C256.43 125.559 257.855 125.934 258.84 125.623C270.116 123.474 281.493 121.936 292.917 120.909C295.093 119.837 303.328 120.889 302.642 117.907C299.884 107.522 304.77 103.523 292.028 106.74C281.933 107.429 271.463 110.506 261.457 109.034C259.526 108.44 257.84 109.035 255.64 109.196ZM201.963 6.05319C189.707 5.57196 177.629 8.55719 165.855 11.652C163.894 12.1224 164.272 13.6501 165.008 15.033C167.243 19.1083 168.15 23.6312 168.45 28.2142C164.979 30.311 162.318 12.5741 159.124 14.0506C145.588 17.4473 156.561 18.8862 156.294 27.2075C155.01 29.5011 150.208 20.5325 149.373 19.1742C145.59 15.773 128.708 31.2572 125.497 34.6482C121.851 39.2806 115.926 42.5285 114.914 48.982C113.718 59.8495 125.059 56.9304 131.809 55.5906C140.242 54.2901 147.731 50.65 155.564 47.5176C159.942 46.9268 172.156 36.2005 174.004 43.0679C172.107 47.2593 167.06 47.377 163.775 50.092C162.572 51.3756 155.814 54.5941 158.027 56.2129C162.234 57.7737 166.412 59.5253 169.718 62.6484C174.583 68.7841 166.569 64.279 164.206 62.9244C156.979 60.1315 155.643 54.7277 149.95 62.9322C149.582 64.6173 152.241 64.9757 153.287 65.804C157.194 68.1094 161.946 69.9428 165.54 72.1955C163.682 74.2255 159.89 72.5663 157.63 71.8043C154.135 71.0928 146.906 64.3651 144.537 67.7885C139.633 73.3542 135.723 79.7521 131.976 86.1448C117.097 122.189 159.961 96.0618 170.598 84.6716C178.4 78.7288 184.857 71.6547 190.771 63.8682C191.883 61.0295 197.536 60.4914 196.683 64.3221C195.916 65.8103 198.589 66.6777 197.159 68.1006C196.299 70.2841 190.871 73.9257 192.287 75.9208C194.933 78.222 201.699 80.1981 202.631 83.2185C198.321 85.9082 193.555 80.0759 189.555 78.612C187.35 78.6084 186.598 81.9581 185.227 83.4048C184.71 85.6988 189.297 85.8498 190.702 87.1208C198.168 92.8749 187.225 88.6641 184.474 87.7679C180.529 85.4514 173.566 106.366 173.722 109.733C173.014 113.386 175.613 116.137 178.248 118.206C184.791 121.26 190.594 112.601 195.187 108.951C206.789 99.9117 213.643 86.9658 223.271 76.2124C241.261 60.5688 247.977 80.1599 254.438 94.5877C255.7 97.2647 255.485 100.332 256.83 103.042C259.935 107.293 270.332 102.641 275.293 103.017C278.23 102.619 294.096 103.895 292.728 100.398C286.85 86.9914 289.092 70.9261 283.208 57.2266C273.574 20.9041 236.695 6.11399 201.963 6.05319ZM308.534 188.418C305.862 189.134 301.025 190.456 300.35 186.63C300.032 183.662 299.321 178.383 303.792 178.826C306.817 178.847 308.988 180.305 308.237 175.975C308.752 159.319 304.337 143.271 302.823 126.843C303.362 121.179 296.166 125.087 293.01 125.046C281.209 125.731 269.742 128.48 257.998 129.611C255.194 130.683 257.416 141.187 256.748 144.333C256.751 144.942 257.027 145.4 257.746 145.273C262.484 144.948 266.418 152.153 262.151 155.247C256.268 159.529 256.864 156.432 257.589 164.463C258.584 168.281 257.092 180.991 260.112 182.392C262.739 182.689 267.318 184.12 265.851 187.62C264.796 190.239 263.653 193.314 260.181 192.988C256.385 193.604 260.775 217.002 261.074 221.258C263.473 221.013 267.359 219.331 268.059 222.724C268.395 225.089 269.742 229.251 266.353 229.594C263.716 229.976 259.219 228.691 258.275 226.105C256.391 214.583 255.181 202.962 254.898 191.285C253.688 169.54 250.41 148.067 250.572 126.247C249.947 118.528 250.205 110.602 251.35 103.215C248.166 97.3622 242.175 80.2321 236.837 77.7037C221.632 76.6145 204.025 121.443 181.458 123.439C175.194 124.852 168.33 117.317 168.213 111.414C168.423 105.029 169.816 98.8785 172.318 92.9856C172.47 92.5246 171.831 92.248 171.503 92.5219C160.313 101.084 146.78 110.695 132.008 108.634C113.729 101.428 130.079 80.2447 136.568 69.6349C139.136 65.5283 142.58 62.1443 145.783 58.5607C150.376 54.3319 143.605 57.0608 141.608 57.6642C133.799 58.8939 125.355 62.9759 117.138 60.4303C110.042 57.3334 109.521 47.5407 113.559 41.7186C116.958 35.7464 122.375 31.4826 127.275 26.8256C133.51 20.0076 140.958 14.6315 149.626 11.3522C173.847 1.54088 200.567 -2.92329 226.388 2.8949C263.597 7.01416 287.584 40.584 292.345 75.7062C292.353 80.3173 293.019 84.8579 294.83 89.1704C296.432 92.9628 294.482 97.1001 294.943 101.101C298.217 102.031 303.895 99.4515 304.583 104.499C307.791 115.26 305.797 126.329 307.474 137.261C312.365 165.207 311.874 194.22 312.918 222.358C307.356 229.66 298.756 219.069 307.566 215.264C311.745 216.474 308.769 191.512 308.534 188.418Z" fill="white"/>
<path fill-rule="evenodd" clip-rule="evenodd" d="M74.6394 61.952C74.7071 61.7751 74.7745 61.5978 74.8422 61.4205C74.2382 61.2559 74.0489 61.7116 74.6394 61.952ZM71.8501 58.342C71.7812 58.156 71.7125 57.97 71.6436 57.784C71.054 57.8866 71.1299 58.125 71.3372 58.5626C71.5082 58.4898 71.6788 58.4166 71.8501 58.342ZM71.3779 46.0962C71.3722 46.0354 71.3664 45.9749 71.3604 45.9141C61.5849 46.3821 66.8764 47.8562 71.2795 51.8623C73.2869 52.7721 78.0818 61.1463 79.6191 58.0139C82.4111 51.276 78.9359 45.3946 71.3779 46.0962ZM114.306 15.6744C94.6861 16.2348 62.1745 5.73843 50.9697 27.5578C49.5251 32.6426 49.1308 39.3573 54.2866 42.4058C56.2254 43.2731 58.8497 45.6065 60.7708 43.603C62.814 41.8285 65.5257 40.3153 68.2346 41.3798C72.1498 42.4256 76.3576 41.7094 79.9426 44.0183C88.5814 48.8659 82.8686 59.0384 79.9923 65.4907C79.2297 76.0518 69.1628 85.2808 58.4422 82.2486C55.4471 78.5314 71.9738 82.4376 75.3734 70.6956C75.7081 69.399 77.872 65.3252 75.0842 65.7255C68.098 67.2435 57.1334 66.2314 56.2859 57.3816C55.931 54.9008 55.8073 52.3893 56.5615 49.906C57.9703 47.4038 48.0561 45.5878 46.6608 38.3897C40.0075 19.2071 62.0806 7.40756 78.557 8.60419C99.367 8.83322 120.271 12.8805 140.92 9.81164C134.415 16.7416 123.467 14.4203 114.306 15.6744Z" fill="white"/>
<path fill-rule="evenodd" clip-rule="evenodd" d="M280.29 162.371C285.723 162.239 284.681 170.055 282.063 172.789C274.669 176.202 270.549 161.683 280.29 162.371Z" fill="white"/>
<path fill-rule="evenodd" clip-rule="evenodd" d="M289.178 203.161C289.011 210.139 277.767 208.434 279.408 202.098C280.387 200.189 280.716 196.733 283.582 197.116C286.834 197.687 289.471 199.27 289.178 203.161Z" fill="white"/>
<path fill-rule="evenodd" clip-rule="evenodd" d="M276.473 139.734C274.036 139.226 270.626 137.999 272.214 134.597C273.417 131.718 275.657 127.401 279.356 129.913C283.884 132.608 282.516 140.173 276.473 139.734Z" fill="white"/>
<path fill-rule="evenodd" clip-rule="evenodd" d="M303.795 148.591C304.314 154.483 294.458 152.849 293.285 148.847C291.759 141.585 304.581 141.692 303.795 148.591Z" fill="white"/>
</g>
<defs>
<clipPath id="clip0_113_115">
<rect width="313" height="313" fill="white"/>
</clipPath>
</defs>
</svg>
