<svg width="375" height="374" viewBox="0 0 375 374" fill="none" xmlns="http://www.w3.org/2000/svg">
<path fill-rule="evenodd" clip-rule="evenodd" d="M20.634 322.68C19.9131 324.169 21.8802 325.5 23.4942 323.409C29.4954 317.518 36.6604 312.314 42.3081 306.304C37.6448 303.42 30.8274 306.48 25.5598 304.087C21.4824 305.538 22.4474 317.36 20.634 322.68ZM15.9979 346.446C26.9335 332.216 44.3619 322.233 53.6689 307.376C52.7708 305.196 46.272 305.211 45.3319 307.689C36.2671 321.227 16.5285 328.457 15.9979 346.446ZM122.445 219.926C122.445 219.966 122.445 220.005 122.445 220.045C114.523 221.922 97.2372 216.015 112.47 210.15C120.608 206.403 129.975 204.374 136.166 197.467C140.189 194.179 142.346 185.393 135.027 185.113C94.0262 186.942 57.6822 218.106 42.6014 255.253C36.3616 269.127 31.7309 283.603 26.321 297.79C25.9119 298.957 26.5583 299.731 27.8741 299.668C72.8335 294.95 73.8812 317.814 81.5932 288.843C86.4277 278.888 87.0668 259.465 100.567 258.155C110.053 257.493 130.889 267.851 131.17 251.977C132.391 240.569 107.539 244.768 110.141 236.153C112.647 232.845 116.519 235.634 119.654 236.09C135.07 239.438 143.207 215.75 122.445 219.926ZM66.5417 363.622C62.3879 369.883 47.2886 379.272 58.5853 364.928C62.2433 360.358 69.067 357.878 69.2058 351.259C69.2338 347.068 74.0553 330.83 66.238 340.539C61.6801 348.047 15.9405 394.648 41.6115 361.444C47.8215 354.398 54.0473 347.363 60.3964 340.443C63.7371 335.74 70.7774 333.163 71.5593 327.051C70.9555 324.969 74.6487 315.417 71.1648 316.71C54.8527 333.147 37.5391 348.926 23.9982 367.807C22.5618 369.497 21.6343 372.056 18.6791 371.77C18.1964 369.02 20.2489 367.105 21.2528 364.844C32.0862 349.484 44.3588 334.85 58.3145 322.242C62.7459 319.581 66.0201 315.549 70.0379 312.4C71.6619 309.005 63.814 309.582 61.7488 308.251C59.6583 307.66 58.1459 308.171 57.0304 310.147C52.1638 318.181 45.1751 324.742 38.4846 331.226C30.2411 337.88 23.5105 346.272 16.5733 354.021C14.1058 354.868 13.8667 356.795 13.4956 358.841C12.4845 361.109 13.0748 369.452 9.21797 366.376C6.27594 362.096 8.77185 355.817 8.75061 350.898C17.0067 279.216 51.2218 186.321 134.44 179.819C142.518 180.019 147.33 186.891 145.695 193.541C143.587 203.078 134.069 207.704 126.838 212.538C143.456 214.204 146.489 228.252 134.174 239.121C132.938 239.995 130.24 240.958 131.892 242.675C138.699 249.071 137.023 262.971 127.271 265.185C118.646 268.99 103.339 260.219 98.1791 268.189C89.7833 287.225 83.624 307.741 78.7099 327.923C77.9031 339.364 75.263 350.537 74.1823 361.934C73.2625 369.775 71.7266 368.754 66.5417 363.622Z" fill="white"/>
<path fill-rule="evenodd" clip-rule="evenodd" d="M13.2383 96.4755C9.83242 96.7476 -1.86984 105.582 0.256282 97.6563C4.25429 93.5764 24.3185 82.529 24.0245 94.0017C23.7947 96.5021 17.6832 101.401 20.7077 102.939C29.504 102.254 47.0155 98.1826 43.668 112.728C43.0976 116.46 44.927 121.341 39.7818 122.398C36.1809 123.295 35.3183 113.286 35.9525 110.718C35.0396 106.706 23.6956 110.39 20.3246 110.743C8.13966 114.908 12.0106 102.277 13.2383 96.4755Z" fill="white"/>
<path fill-rule="evenodd" clip-rule="evenodd" d="M55.9076 148.09C55.9252 151.495 58.7065 161.381 52.8777 160.132C51.2873 159.643 50.313 158.502 49.9741 156.858C48.6486 152.811 51.1077 148.643 49.5593 144.709C41.6266 144.234 29.2347 161.617 25.3563 147.087C24.1604 142.823 26.545 130.719 19.0021 134.912C16.3436 135.397 -1.31443 148.144 4.36098 139.425C15.2483 130.222 30.6476 119.732 30.5759 142.885C32.2858 151.174 57.7047 121.806 56.2944 148.055C56.1653 148.067 56.0367 148.079 55.9076 148.09Z" fill="white"/>
<path fill-rule="evenodd" clip-rule="evenodd" d="M5.27314 210.445C3.61709 205.235 11.4631 202.23 14.2226 198.61C18.4598 195.022 25.3598 192.382 28.6905 198.479C30.7458 206.255 36.9948 196.674 41.8872 196.942C51.7427 194.292 47.897 219.483 42.0532 209.719C41.8854 207.768 41.3287 204.628 38.7847 206.737C18.2888 225.438 27.6089 203.507 20.3831 204.14C17.7316 206.356 3.60348 220.502 5.27314 210.445Z" fill="white"/>
<path fill-rule="evenodd" clip-rule="evenodd" d="M24.4404 160.305C29.968 160.156 30.3585 167.065 30.7192 171.173C34.2657 175.977 50.8135 155.32 50.0745 179.765C49.4095 181.612 47.3527 182.623 46.0239 180.847C40.2718 163.193 28.8612 198.435 24.2366 171.977C24.8601 161.56 14.4685 172.464 10.2006 173.949C1.6494 170.663 19.6544 159.284 24.4404 160.305Z" fill="white"/>
<path fill-rule="evenodd" clip-rule="evenodd" d="M101.213 156.741C78.4978 169.774 88.6502 150.848 81.6257 150.893C78.9426 151.49 75.9162 153.651 73.4693 151.383C67.1267 145.942 92.357 136.04 91.1617 151.907C91.4525 157.255 96.4038 152.416 99.2875 152.582C104.664 150.633 109.766 161.742 105.394 161.054C104.266 159.171 103.466 157.511 101.213 156.741Z" fill="white"/>
<path fill-rule="evenodd" clip-rule="evenodd" d="M71.1319 184.896C67.0577 186.499 66.19 191.037 61.9616 192.318C54.6499 191.624 63.4842 182.022 65.3392 178.975C68.7113 174.426 75.1199 172.757 76.5912 179.677C77.961 184.404 80.45 179.647 83.145 178.964C85.6717 177.496 89.1192 181.186 86.8351 183.321C80.6591 188.498 77.0942 195.876 71.1319 184.896Z" fill="white"/>
<path fill-rule="evenodd" clip-rule="evenodd" d="M204.755 343.335C187.4 338.44 219.656 327.841 224.734 326.755C233.525 334.186 210.393 342.504 204.755 343.335Z" fill="white"/>
<path fill-rule="evenodd" clip-rule="evenodd" d="M174.801 313.507C173.902 319.437 172.924 324.302 169.702 328.523C155.524 336.044 164.943 312.607 169.46 308.114C172.198 304 174.907 311.813 174.801 313.507Z" fill="white"/>
<path fill-rule="evenodd" clip-rule="evenodd" d="M138.693 304.769C133.923 302.979 115.339 295.435 116.465 289.687C119.475 284.775 130.389 293.383 134.479 295.03C138.299 297.198 149.078 303.306 138.693 304.769Z" fill="white"/>
<path fill-rule="evenodd" clip-rule="evenodd" d="M14.5339 261.092C17.9279 261.773 21.6221 265.628 23.3209 260.16C23.9775 259.439 24.9241 258.145 25.4183 258.286C26.5551 258.846 28.9747 259.817 28.8271 261.395C26.4209 269.704 23.4322 272.44 15.7722 267.074C11.1139 264.809 10.1224 271.879 7.66201 274.435C-1.66405 280.846 6.99147 258.005 14.5339 261.092Z" fill="white"/>
<path fill-rule="evenodd" clip-rule="evenodd" d="M133.133 344.527C138.757 346.012 146.304 348.112 150.034 353.821C151.213 357.076 148.223 360.777 144.737 358.479C140.768 355.244 125.965 352.871 128.628 346.488C129.519 345.093 130.553 344.068 133.133 344.527Z" fill="white"/>
<path fill-rule="evenodd" clip-rule="evenodd" d="M24.1482 235.309C23.6089 238.971 19.1845 239.058 17.1845 236.482C13.665 232.752 10.6498 239.667 7.69603 241.355C-7.59926 251.247 9.24054 228.719 15.0793 227.428C19.7073 224.965 22.8096 232.063 24.1482 235.309Z" fill="white"/>
<path fill-rule="evenodd" clip-rule="evenodd" d="M99.7706 338.997C92.6111 336.012 105.737 324.64 110.047 323.584C129.108 318.492 106.354 339.605 99.7706 338.997Z" fill="white"/>
<path fill-rule="evenodd" clip-rule="evenodd" d="M160.027 267.772C157.709 273.243 152.222 285.045 145.503 284.18C144.21 279.491 148.186 275.352 150.16 271.388C151.174 266.83 158.142 260.361 160.027 267.772Z" fill="white"/>
<path fill-rule="evenodd" clip-rule="evenodd" d="M257.803 361.355C255.209 378.347 240.487 349.422 250.489 347.744C255.986 348.238 256.369 357.072 257.803 361.355Z" fill="white"/>
<path fill-rule="evenodd" clip-rule="evenodd" d="M182.751 368.6C182.354 363.702 188.867 346.663 193.52 355.632C194.08 360.364 185.534 381.93 182.751 368.6Z" fill="white"/>
<path fill-rule="evenodd" clip-rule="evenodd" d="M190.295 301.776C189.408 311.747 177.359 296.598 175.529 293.591C175.258 282.088 190.677 296.627 190.295 301.776Z" fill="white"/>
<path fill-rule="evenodd" clip-rule="evenodd" d="M175.886 229.802C171.302 229.456 166.475 229.657 163.431 226.314C161.936 224.374 163.905 221.465 166.254 222.421C170.346 223.618 174.492 225.415 175.886 229.802Z" fill="white"/>
<path fill-rule="evenodd" clip-rule="evenodd" d="M257.953 20.5233C278.215 19.7112 294.626 27.2223 311.669 36.5242C345.501 55.4665 348.162 98.4361 343.364 132.919C344.782 135.518 349.114 134.677 351.689 135.563C356 135.044 359.007 129.102 357.603 124.55C355.761 119.205 351.12 106.891 360.889 108.11C376.66 113.524 365.489 92.1583 358.952 88.4402C337.536 73.6018 361.49 70.8684 360.261 63.8433C360.001 51.736 327.277 56.5121 338.314 42.079C341.21 39.8176 343.121 37.9619 338.391 36.4411C334.063 34.5294 329.349 34.1661 324.775 33.5549C299.173 31.3013 324.457 19.9603 306.859 17.3849C300.74 17.2272 294.58 17.5376 288.509 18.0159C281.166 19.9163 273.474 18.7157 274.062 9.47012C273.707 6.24552 272.934 5.52398 269.582 5.39032C255.869 2.87445 240.261 29.8462 231.254 10.1225C229.625 7.80168 228.616 7.52736 226.033 8.44279C218.368 12.1904 218.818 25.5981 208.778 26.3597C203.259 28.562 195.302 22.8122 191.215 27.9967C189.073 30.2437 186.698 45.112 191.151 43.557C210.532 31.4128 235.227 20.5843 257.953 20.5233ZM337.911 102.404C338.184 57.8387 310.772 34.8243 268.952 27.1632C238.465 25.3969 208.337 37.8632 183.799 55.2629C177.924 58.559 186.921 60.264 188.864 62.8949C197.708 69.7031 207.192 75.51 217.331 80.1761C235.958 90.7362 253.212 103.842 270.917 115.971C289.677 127.674 308.956 138.547 325.542 153.323C326.163 153.897 327.233 153.606 327.241 152.853C327.274 149.85 328.936 147.582 330.59 145.359C339.118 132.718 338.222 117.189 337.911 102.404ZM173.327 58.9068C175.515 56.9026 178.02 57.0052 179.477 54.52C180.826 51.9369 185.263 49.9503 184.496 46.7715C179.069 36.1683 185.119 16.0872 199.381 20.4048C210.857 25.1346 212.494 17.7622 217.332 9.54045C221.721 2.87328 232.948 0.350799 236.701 8.78588C238.76 15.0505 243.79 11.4125 247.607 9.03183C254.847 2.59469 275.311 -6.50482 279.416 6.95735C279.853 9.03105 278.76 13.1007 281.961 13.0751C292.447 12.9578 303.176 11.2617 313.486 13.9245C318.134 15.401 319.891 18.8331 318.564 23.5443C313.862 30.9477 338.449 28.0522 342.697 32.6473C346.166 34.3079 349.35 38.9053 345.726 42.0883C344.429 43.3394 342.289 43.8531 342.109 46.1129C348.382 49.1992 355.438 50.5902 361.328 54.4512C365.772 57.3895 366.82 61.8283 366.123 66.8196C366.055 72.8379 353.273 73.3042 356.533 79.4981C364.03 85.3462 371.098 90.5237 373.857 100.274C377.752 108.766 369.212 115.783 361.007 112.748C359.526 112.261 358.961 113.4 359.431 114.644C363.435 121.815 366.308 130.266 359.424 136.797C355.304 142.715 348.647 141.077 342.488 140.378C334.245 143.406 333.644 166.668 321.783 156.324C307.633 144.867 292.443 134.82 276.24 126.51C260.488 116.64 245.221 105.949 229.606 95.8569C219.14 87.146 205.716 83.44 194.775 75.4171C187.065 70.488 181.522 63.5888 173.327 58.9068Z" fill="white"/>
<path fill-rule="evenodd" clip-rule="evenodd" d="M293.219 179.498C288.973 179.977 296.825 186.526 297.308 181.012C296.771 179.144 294.956 179.78 293.219 179.498ZM300.428 188.69C300.702 193.026 305.071 194.484 305.776 189.877C305.14 187.609 302.179 188.53 300.428 188.69ZM278.328 176.337L278.344 176.187C280.179 176.039 283.99 178.201 284.465 175.535C284.635 174.216 285.467 171.554 283.272 171.812C279.465 171.962 267.643 177.039 278.328 176.337ZM243.938 189.547C231.959 182.945 233.251 188.092 235.753 198.305C236.639 202.397 242.256 190.853 243.938 189.547ZM262.247 178.917C260.465 177.612 259.526 175.741 258.782 173.702C252.887 169.639 249.13 180.34 249.125 185.782C253.452 183.298 258.642 182.177 262.247 178.917ZM279.183 182.817C269.062 182.713 260.814 188.948 251.8 192.238C250.564 192.846 250.304 194.591 248.969 195.249C239.949 202.739 242.315 214.862 241.3 225.251C241.753 227.416 244.078 225.729 245.266 225.21C262.338 217.045 279.284 208.763 296.251 200.464C303.92 197.958 293.194 188.956 289.986 186.172C286.805 183.851 283.546 182.864 279.183 182.817ZM238.316 225.993C235.345 231.042 228.228 226.976 223.721 226.567C221.04 225.983 219.709 222.32 222.448 219.979C223.86 218.384 229.494 216.953 226.222 214.396C212.939 198.734 231.735 202.853 230.719 197.676C228.868 191.659 229.283 179.683 238.504 182.601C240.813 183.527 243.385 186.117 244.43 182.26C246.297 176.55 249.188 169.964 255.94 169.231C262.991 167.025 261.778 177.082 266.724 174.117C272.35 171.344 287.81 162.013 290.249 171.848C288.828 176.806 295.035 174.41 297.836 175.422C305.441 177.295 301.214 182.041 309.736 185.06C316.005 190.863 308.341 195.608 304.962 199.57C305.125 201.829 303.619 202.65 301.978 203.401C282.967 211.673 264.962 222.327 245.019 228.547C232.271 230.822 236.915 210.02 235.401 202.907C213.679 205.994 240.72 211.864 230.151 220.068C228.979 220.826 224.887 222.57 227.344 223.929C230.947 224.556 234.692 226.841 238.316 225.993Z" fill="white"/>
<path fill-rule="evenodd" clip-rule="evenodd" d="M341.295 208.324C347.499 207.509 358.269 207.62 360.518 200.706C360.41 196.773 356.958 193.04 353.044 192.805C344.461 192.444 338.118 199.308 332.146 204.414C331.147 208.243 338.726 207.819 341.295 208.324ZM328.826 198.36C337.181 192.485 345.027 184.692 356.017 187.125C364.11 188.159 369.857 201.772 362.299 206.817C353.051 211.649 339.908 214.905 330.375 209.296C328.536 207.868 327.782 208.076 326.197 209.682C310.648 227.395 307.168 252.109 307.15 274.937C306.404 277.977 310.875 298.498 304.881 293.551C298.242 263.524 300.825 227.379 322.975 204.112C326.97 196.956 317.175 190.12 328.738 177.772C335.854 169.259 349.59 162.04 359.436 169.445C353.026 170.613 345.443 169.357 339.997 174.371C332.263 180.08 324.977 187.813 328.826 198.36Z" fill="white"/>
<path fill-rule="evenodd" clip-rule="evenodd" d="M140.29 76.3422C139.714 72.9032 134.137 54.199 129.736 57.7614C116.187 74.6508 136.814 89.5472 140.29 76.3422ZM86.1924 40.8886C80.9691 41.0572 60.4614 44.8328 72.6484 37.4656C82.215 34.9708 92.0879 34.156 101.742 36.633C111.257 38.9441 121.03 40.8984 129.355 46.3366C131.156 47.424 131.207 47.4294 132.705 46.0041C138.249 40.7317 144.778 37.2439 152.153 35.3588C154.026 34.918 160.517 33.8263 159.247 37.0365C153.745 38.6462 133.784 45.0305 135.766 52.007C161.673 90.3919 119.025 94.3198 122.84 64.7115C122.467 60.6776 129.617 53.9555 125.366 51.7243C114.026 44.8934 98.9973 41.7722 86.1924 40.8886Z" fill="white"/>
<path fill-rule="evenodd" clip-rule="evenodd" d="M211.046 127.194C203.554 126.078 203.345 126.145 202.98 133.487C201.878 139.97 195.398 134.453 196.53 129.944C196.432 124.557 196.834 125.382 191.928 124.365C187.328 123.529 188.254 121.272 192.379 120.855C197.799 121.512 196.453 116.18 197.947 112.691C198.326 110.52 202.172 110.87 202.559 112.993C203.517 115.534 202.057 120.286 205.156 121.277C208.245 122.278 212.407 121.645 214.42 124.597C216.032 126.958 212.225 127.267 211.046 127.194Z" fill="white"/>
<path fill-rule="evenodd" clip-rule="evenodd" d="M263.222 260.165C259.924 251.495 259.701 248.851 266.758 257.292C269.855 261.047 275.352 257.186 279.52 259.047C285.007 262.381 274.908 264.058 272.397 264.519C268.665 266.023 273.409 271.912 271.337 274.434C266.495 275.299 268.11 266.482 263.882 266.956C259.758 268.37 250.251 272.062 257.41 264.364C259.379 263.071 262.021 262.31 263.222 260.165Z" fill="white"/>
<path fill-rule="evenodd" clip-rule="evenodd" d="M237.643 129.917C236.451 128.705 235.721 123.841 233.527 124.879C230.203 129.64 229.47 134.484 237.643 129.917ZM239.717 134.231C220.326 138.896 227.876 132.318 232.205 119.608C236.642 110.06 239.539 126.304 243.357 128.769C248.276 132.401 243.457 136.457 239.717 134.231Z" fill="white"/>
<path fill-rule="evenodd" clip-rule="evenodd" d="M132.96 104.375C123.526 104.163 111.528 97.2675 114.3 87.0745C118.553 88.949 119.605 95.7739 124.866 96.9155C128.369 98.5844 132.166 99.0138 135.957 99.6325C140.887 102.681 135.911 104.194 132.96 104.375Z" fill="white"/>
<path fill-rule="evenodd" clip-rule="evenodd" d="M73.0299 81.6682C74.6382 82.1338 75.5605 83.8127 77.409 84.0201C79.5156 85.3152 77.0099 88.4381 75.2347 88.4866C72.3249 89.0125 69.4499 82.3812 73.0299 81.6682Z" fill="white"/>
<path fill-rule="evenodd" clip-rule="evenodd" d="M336.102 315.558C334.227 315.098 330.989 312.945 334.136 311.364C336.237 311.618 339.234 308.555 340.204 311.664C340.611 313.644 338.974 315.455 336.102 315.558Z" fill="white"/>
<path fill-rule="evenodd" clip-rule="evenodd" d="M341.917 275.215C344.951 276.093 345.13 281.988 341.453 281.691C339.692 281.391 340.404 279.177 339.727 277.881C339.176 275.973 339.648 275.231 341.917 275.215Z" fill="white"/>
<path fill-rule="evenodd" clip-rule="evenodd" d="M279.677 145.857C279.164 149.64 271.513 146.634 274.089 143.544C274.923 141.082 279.944 143.879 279.677 145.857Z" fill="white"/>
<path fill-rule="evenodd" clip-rule="evenodd" d="M165.959 93.9157C162.667 93.5397 165.059 89.0567 167.565 89.2427C169.057 89.2193 170.658 90.6606 169.157 92.0116C168.359 92.8646 167.771 94.0219 165.959 93.9157Z" fill="white"/>
<path fill-rule="evenodd" clip-rule="evenodd" d="M276.084 41.1938C275.578 43.7069 260.458 49.8771 260.958 45.5946C261.054 40.0055 273.084 36.7985 276.084 41.1938Z" fill="white"/>
<path fill-rule="evenodd" clip-rule="evenodd" d="M237.471 55.0883C237.863 58.7225 235.754 62.3159 232.911 58.2267C229.99 55.6289 231.459 41.951 235.788 47.7784C236.533 50.454 237.046 53.198 237.471 55.0883Z" fill="white"/>
<path fill-rule="evenodd" clip-rule="evenodd" d="M282.21 100.053C283.075 97.3687 283.632 90.2019 288.134 92.0653C293.042 94.5094 282.315 113.289 282.21 100.053Z" fill="white"/>
<path fill-rule="evenodd" clip-rule="evenodd" d="M298.806 59.322C301.095 60.3476 306.497 59.3143 306.356 62.7059C306.146 64.7751 305.051 65.1912 303.449 65.0695C296.418 64.4043 283.366 62.4445 298.806 59.322Z" fill="white"/>
<path fill-rule="evenodd" clip-rule="evenodd" d="M316.451 120.99C316.1 123.628 313.703 130.28 310.599 126.09C307.762 122.144 315.265 112.757 316.451 120.99Z" fill="white"/>
<path fill-rule="evenodd" clip-rule="evenodd" d="M259.859 81.2208C260.091 90.2069 252.63 78.5522 255.46 75.0108C258.73 71.516 259.832 79.0462 259.859 81.2208Z" fill="white"/>
<path fill-rule="evenodd" clip-rule="evenodd" d="M323.299 100.41C320.585 100.401 312.077 97.914 316.741 94.6659C318.864 94.2953 327.349 98.591 323.299 100.41Z" fill="white"/>
<path fill-rule="evenodd" clip-rule="evenodd" d="M286.536 190.229C286.173 193.156 284.172 195.3 281.951 197.055C274.476 199.906 282.967 181.853 286.536 190.229Z" fill="white"/>
<path fill-rule="evenodd" clip-rule="evenodd" d="M261.3 205.016C259.934 208.05 256.53 203.33 255.402 201.918C253.778 194.744 261.558 198.716 261.3 205.016Z" fill="white"/>
<path fill-rule="evenodd" clip-rule="evenodd" d="M248.825 215.385C247.315 213.472 249.601 209.792 251.221 208.216C256.412 207.579 250.857 214.767 248.825 215.385Z" fill="white"/>
<path fill-rule="evenodd" clip-rule="evenodd" d="M271.019 195.498C269.523 196.849 267.13 194.672 266.712 193.122C267.326 190.155 271.339 193.565 271.019 195.498Z" fill="white"/>
</svg>
